<?xml version="1.0" encoding="utf-8" standalone="no"?>
<!DOCTYPE svg PUBLIC "-//W3C//DTD SVG 1.1//EN"
  "http://www.w3.org/Graphics/SVG/1.1/DTD/svg11.dtd">
<svg xmlns:xlink="http://www.w3.org/1999/xlink" width="2592pt" height="1728pt" viewBox="0 0 2592 1728" xmlns="http://www.w3.org/2000/svg" version="1.1">
 <metadata>
  <rdf:RDF xmlns:dc="http://purl.org/dc/elements/1.1/" xmlns:cc="http://creativecommons.org/ns#" xmlns:rdf="http://www.w3.org/1999/02/22-rdf-syntax-ns#">
   <cc:Work>
    <dc:type rdf:resource="http://purl.org/dc/dcmitype/StillImage"/>
    <dc:date>2024-03-30T13:24:35.684259</dc:date>
    <dc:format>image/svg+xml</dc:format>
    <dc:creator>
     <cc:Agent>
      <dc:title>Matplotlib v3.6.2, https://matplotlib.org/</dc:title>
     </cc:Agent>
    </dc:creator>
   </cc:Work>
  </rdf:RDF>
 </metadata>
 <defs>
  <style type="text/css">*{stroke-linejoin: round; stroke-linecap: butt}</style>
 </defs>
 <g id="figure_1">
  <g id="patch_1">
   <path d="M 0 1728 
L 2592 1728 
L 2592 0 
L 0 0 
L 0 1728 
z
" style="fill: none"/>
  </g>
  <g id="axes_1">
   <g id="patch_2">
    <path d="M 324 1512 
L 2332.8 1512 
L 2332.8 207.36 
L 324 207.36 
z
" style="fill: #ffffff"/>
   </g>
   <g id="PolyCollection_1">
    <defs>
     <path id="m8e1e960e6f" d="M 324 -927.621818 
L 324 -631.112727 
L 626.354528 -764.541818 
L 803.220588 -809.018182 
L 928.709055 -868.32 
L 1026.045472 -986.923636 
L 1105.575116 -1016.574545 
L 1172.816471 -1016.574545 
L 1231.063583 -1016.574545 
L 1282.441176 -1046.225455 
L 1328.4 -1120.352727 
L 1369.974813 -1135.178182 
L 1407.929644 -1135.178182 
L 1442.844703 -1150.003636 
L 1475.170999 -1135.178182 
L 1505.266061 -1179.654545 
L 1533.418111 -1194.48 
L 1559.862897 -1194.48 
L 1584.795704 -1194.48 
L 1608.380117 -1194.48 
L 1630.754528 -1194.48 
L 1652.03706 -1209.305455 
L 1672.329341 -1238.956364 
L 1691.719438 -1238.956364 
L 1710.284171 -1238.956364 
L 1728.090945 -1238.956364 
L 1745.199231 -1238.956364 
L 1761.661765 -1253.781818 
L 1777.525527 -1253.781818 
L 1792.832549 -1253.781818 
L 1807.620588 -1253.781818 
L 1821.923685 -1253.781818 
L 1835.772638 -1253.781818 
L 1849.195401 -1253.781818 
L 1862.217424 -1253.781818 
L 1874.861944 -1268.607273 
L 1887.150232 -1268.607273 
L 1899.101812 -1268.607273 
L 1910.734644 -1268.607273 
L 1922.065291 -1268.607273 
L 1933.109055 -1268.607273 
L 1943.880106 -1268.607273 
L 1954.391587 -1268.607273 
L 1964.655717 -1298.258182 
L 1974.683868 -1298.258182 
L 1984.486649 -1313.083636 
L 1994.073966 -1313.083636 
L 2003.455089 -1313.083636 
L 2012.638699 -1313.083636 
L 2021.632943 -1313.083636 
L 2030.445472 -1313.083636 
L 2039.083485 -1313.083636 
L 2047.553758 -1313.083636 
L 2055.862683 -1313.083636 
L 2064.016292 -1313.083636 
L 2072.020285 -1313.083636 
L 2079.880054 -1313.083636 
L 2087.600705 -1313.083636 
L 2095.187077 -1313.083636 
L 2102.64376 -1313.083636 
L 2109.975116 -1313.083636 
L 2117.185286 -1313.083636 
L 2124.278213 -1313.083636 
L 2131.257648 -1313.083636 
L 2138.127166 -1313.083636 
L 2144.890175 -1313.083636 
L 2151.549929 -1313.083636 
L 2158.109532 -1313.083636 
L 2164.571952 -1313.083636 
L 2170.940027 -1327.909091 
L 2177.216471 -1327.909091 
L 2183.403885 -1327.909091 
L 2189.504759 -1357.56 
L 2195.521481 -1357.56 
L 2201.456339 -1357.56 
L 2207.311533 -1357.56 
L 2213.089172 -1357.56 
L 2218.791284 -1357.56 
L 2224.419819 -1357.56 
L 2229.97665 -1357.56 
L 2235.463583 -1357.56 
L 2240.882353 -1357.56 
L 2246.234633 -1357.56 
L 2251.522036 -1357.56 
L 2256.746115 -1357.56 
L 2261.908369 -1357.56 
L 2267.010244 -1357.56 
L 2272.053137 -1357.56 
L 2277.038396 -1357.56 
L 2281.967323 -1357.56 
L 2286.841176 -1357.56 
L 2291.661174 -1357.56 
L 2296.428494 -1357.56 
L 2301.144274 -1357.56 
L 2305.809616 -1357.56 
L 2310.425589 -1357.56 
L 2314.993226 -1357.56 
L 2319.51353 -1357.56 
L 2323.98747 -1357.56 
L 2328.415989 -1357.56 
L 2332.8 -1357.56 
L 2332.8 -1461.338182 
L 2332.8 -1461.338182 
L 2328.415989 -1461.338182 
L 2323.98747 -1461.338182 
L 2319.51353 -1461.338182 
L 2314.993226 -1461.338182 
L 2310.425589 -1461.338182 
L 2305.809616 -1461.338182 
L 2301.144274 -1461.338182 
L 2296.428494 -1461.338182 
L 2291.661174 -1461.338182 
L 2286.841176 -1461.338182 
L 2281.967323 -1461.338182 
L 2277.038396 -1461.338182 
L 2272.053137 -1461.338182 
L 2267.010244 -1461.338182 
L 2261.908369 -1461.338182 
L 2256.746115 -1461.338182 
L 2251.522036 -1461.338182 
L 2246.234633 -1461.338182 
L 2240.882353 -1461.338182 
L 2235.463583 -1461.338182 
L 2229.97665 -1461.338182 
L 2224.419819 -1461.338182 
L 2218.791284 -1461.338182 
L 2213.089172 -1461.338182 
L 2207.311533 -1461.338182 
L 2201.456339 -1461.338182 
L 2195.521481 -1461.338182 
L 2189.504759 -1461.338182 
L 2183.403885 -1461.338182 
L 2177.216471 -1461.338182 
L 2170.940027 -1461.338182 
L 2164.571952 -1446.512727 
L 2158.109532 -1446.512727 
L 2151.549929 -1446.512727 
L 2144.890175 -1446.512727 
L 2138.127166 -1446.512727 
L 2131.257648 -1446.512727 
L 2124.278213 -1446.512727 
L 2117.185286 -1446.512727 
L 2109.975116 -1446.512727 
L 2102.64376 -1446.512727 
L 2095.187077 -1446.512727 
L 2087.600705 -1446.512727 
L 2079.880054 -1446.512727 
L 2072.020285 -1446.512727 
L 2064.016292 -1446.512727 
L 2055.862683 -1446.512727 
L 2047.553758 -1446.512727 
L 2039.083485 -1446.512727 
L 2030.445472 -1446.512727 
L 2021.632943 -1446.512727 
L 2012.638699 -1446.512727 
L 2003.455089 -1446.512727 
L 1994.073966 -1446.512727 
L 1984.486649 -1446.512727 
L 1974.683868 -1431.687273 
L 1964.655717 -1431.687273 
L 1954.391587 -1431.687273 
L 1943.880106 -1431.687273 
L 1933.109055 -1416.861818 
L 1922.065291 -1431.687273 
L 1910.734644 -1431.687273 
L 1899.101812 -1431.687273 
L 1887.150232 -1431.687273 
L 1874.861944 -1431.687273 
L 1862.217424 -1416.861818 
L 1849.195401 -1416.861818 
L 1835.772638 -1416.861818 
L 1821.923685 -1416.861818 
L 1807.620588 -1416.861818 
L 1792.832549 -1416.861818 
L 1777.525527 -1416.861818 
L 1761.661765 -1416.861818 
L 1745.199231 -1402.036364 
L 1728.090945 -1402.036364 
L 1710.284171 -1402.036364 
L 1691.719438 -1402.036364 
L 1672.329341 -1402.036364 
L 1652.03706 -1387.581545 
L 1630.754528 -1372.385455 
L 1608.380117 -1387.210909 
L 1584.795704 -1372.385455 
L 1559.862897 -1387.210909 
L 1533.418111 -1387.210909 
L 1505.266061 -1372.385455 
L 1475.170999 -1342.734545 
L 1442.844703 -1342.734545 
L 1407.929644 -1342.734545 
L 1369.974813 -1342.734545 
L 1328.4 -1342.734545 
L 1282.441176 -1283.432727 
L 1231.063583 -1253.781818 
L 1172.816471 -1253.781818 
L 1105.575116 -1253.781818 
L 1026.045472 -1238.956364 
L 928.709055 -1135.178182 
L 803.220588 -1090.701818 
L 626.354528 -1031.4 
L 324 -927.621818 
z
" style="stroke: #1f77b4; stroke-opacity: 0.1"/>
    </defs>
    <g clip-path="url(#p52cf7d367e)">
     <use xlink:href="#m8e1e960e6f" x="0" y="1728" style="fill: #1f77b4; fill-opacity: 0.1; stroke: #1f77b4; stroke-opacity: 0.1"/>
    </g>
   </g>
   <g id="PolyCollection_2">
    <defs>
     <path id="m4146705462" d="M 324 -527.334545 
L 324 -275.301818 
L 626.354528 -408.730909 
L 803.220588 -556.985455 
L 928.709055 -616.287273 
L 1026.045472 -705.24 
L 1105.575116 -720.065455 
L 1172.816471 -764.541818 
L 1231.063583 -809.018182 
L 1282.441176 -823.843636 
L 1328.4 -883.145455 
L 1369.974813 -883.145455 
L 1407.929644 -897.970909 
L 1442.844703 -942.447273 
L 1475.170999 -942.447273 
L 1505.266061 -957.272727 
L 1533.418111 -986.923636 
L 1559.862897 -986.923636 
L 1584.795704 -1046.225455 
L 1608.380117 -1090.701818 
L 1630.754528 -1090.701818 
L 1652.03706 -1090.701818 
L 1672.329341 -1105.527273 
L 1691.719438 -1120.352727 
L 1710.284171 -1120.352727 
L 1728.090945 -1120.352727 
L 1745.199231 -1120.352727 
L 1761.661765 -1120.352727 
L 1777.525527 -1120.352727 
L 1792.832549 -1120.352727 
L 1807.620588 -1120.352727 
L 1821.923685 -1120.352727 
L 1835.772638 -1120.352727 
L 1849.195401 -1120.352727 
L 1862.217424 -1135.178182 
L 1874.861944 -1135.178182 
L 1887.150232 -1135.178182 
L 1899.101812 -1164.829091 
L 1910.734644 -1164.829091 
L 1922.065291 -1164.829091 
L 1933.109055 -1164.829091 
L 1943.880106 -1164.829091 
L 1954.391587 -1164.829091 
L 1964.655717 -1150.003636 
L 1974.683868 -1179.654545 
L 1984.486649 -1179.654545 
L 1994.073966 -1179.654545 
L 2003.455089 -1179.654545 
L 2012.638699 -1179.654545 
L 2021.632943 -1194.48 
L 2030.445472 -1209.305455 
L 2039.083485 -1209.305455 
L 2047.553758 -1238.956364 
L 2055.862683 -1238.956364 
L 2064.016292 -1238.956364 
L 2072.020285 -1238.956364 
L 2079.880054 -1238.956364 
L 2087.600705 -1253.781818 
L 2095.187077 -1253.781818 
L 2102.64376 -1253.781818 
L 2109.975116 -1253.781818 
L 2117.185286 -1253.781818 
L 2124.278213 -1253.781818 
L 2131.257648 -1253.781818 
L 2138.127166 -1253.781818 
L 2144.890175 -1253.781818 
L 2151.549929 -1253.781818 
L 2158.109532 -1253.781818 
L 2164.571952 -1253.781818 
L 2170.940027 -1253.781818 
L 2177.216471 -1253.781818 
L 2183.403885 -1253.781818 
L 2189.504759 -1253.781818 
L 2195.521481 -1253.781818 
L 2201.456339 -1268.607273 
L 2207.311533 -1268.607273 
L 2213.089172 -1268.607273 
L 2218.791284 -1283.432727 
L 2224.419819 -1313.083636 
L 2229.97665 -1313.083636 
L 2235.463583 -1313.083636 
L 2240.882353 -1313.083636 
L 2246.234633 -1313.083636 
L 2251.522036 -1313.083636 
L 2256.746115 -1313.083636 
L 2261.908369 -1313.083636 
L 2267.010244 -1313.083636 
L 2272.053137 -1313.083636 
L 2277.038396 -1313.083636 
L 2281.967323 -1313.083636 
L 2286.841176 -1313.083636 
L 2291.661174 -1313.083636 
L 2296.428494 -1313.083636 
L 2301.144274 -1327.909091 
L 2305.809616 -1327.909091 
L 2310.425589 -1327.909091 
L 2314.993226 -1327.909091 
L 2319.51353 -1327.909091 
L 2323.98747 -1327.909091 
L 2328.415989 -1327.909091 
L 2332.8 -1327.909091 
L 2332.8 -1461.338182 
L 2332.8 -1461.338182 
L 2328.415989 -1461.338182 
L 2323.98747 -1461.338182 
L 2319.51353 -1461.338182 
L 2314.993226 -1461.338182 
L 2310.425589 -1461.338182 
L 2305.809616 -1461.338182 
L 2301.144274 -1461.338182 
L 2296.428494 -1446.512727 
L 2291.661174 -1446.512727 
L 2286.841176 -1446.512727 
L 2281.967323 -1446.512727 
L 2277.038396 -1446.512727 
L 2272.053137 -1446.512727 
L 2267.010244 -1446.512727 
L 2261.908369 -1446.512727 
L 2256.746115 -1446.512727 
L 2251.522036 -1446.512727 
L 2246.234633 -1446.512727 
L 2240.882353 -1446.512727 
L 2235.463583 -1446.512727 
L 2229.97665 -1446.512727 
L 2224.419819 -1446.512727 
L 2218.791284 -1431.687273 
L 2213.089172 -1431.687273 
L 2207.311533 -1431.687273 
L 2201.456339 -1431.687273 
L 2195.521481 -1416.861818 
L 2189.504759 -1416.861818 
L 2183.403885 -1416.861818 
L 2177.216471 -1416.861818 
L 2170.940027 -1416.861818 
L 2164.571952 -1416.861818 
L 2158.109532 -1416.861818 
L 2151.549929 -1416.861818 
L 2144.890175 -1416.861818 
L 2138.127166 -1416.861818 
L 2131.257648 -1416.861818 
L 2124.278213 -1416.861818 
L 2117.185286 -1416.861818 
L 2109.975116 -1416.861818 
L 2102.64376 -1416.861818 
L 2095.187077 -1416.861818 
L 2087.600705 -1416.861818 
L 2079.880054 -1402.036364 
L 2072.020285 -1402.036364 
L 2064.016292 -1402.036364 
L 2055.862683 -1402.036364 
L 2047.553758 -1402.036364 
L 2039.083485 -1387.210909 
L 2030.445472 -1387.210909 
L 2021.632943 -1387.210909 
L 2012.638699 -1372.385455 
L 2003.455089 -1372.385455 
L 1994.073966 -1372.385455 
L 1984.486649 -1372.385455 
L 1974.683868 -1372.385455 
L 1964.655717 -1357.56 
L 1954.391587 -1357.56 
L 1943.880106 -1357.56 
L 1933.109055 -1357.56 
L 1922.065291 -1357.56 
L 1910.734644 -1357.56 
L 1899.101812 -1357.56 
L 1887.150232 -1342.734545 
L 1874.861944 -1342.734545 
L 1862.217424 -1342.734545 
L 1849.195401 -1327.909091 
L 1835.772638 -1342.734545 
L 1821.923685 -1342.734545 
L 1807.620588 -1327.909091 
L 1792.832549 -1327.909091 
L 1777.525527 -1327.909091 
L 1761.661765 -1342.734545 
L 1745.199231 -1327.909091 
L 1728.090945 -1327.909091 
L 1710.284171 -1328.279727 
L 1691.719438 -1327.909091 
L 1672.329341 -1327.909091 
L 1652.03706 -1313.083636 
L 1630.754528 -1313.083636 
L 1608.380117 -1313.083636 
L 1584.795704 -1283.432727 
L 1559.862897 -1238.956364 
L 1533.418111 -1238.956364 
L 1505.266061 -1209.305455 
L 1475.170999 -1194.48 
L 1442.844703 -1194.48 
L 1407.929644 -1164.829091 
L 1369.974813 -1150.003636 
L 1328.4 -1150.003636 
L 1282.441176 -1090.701818 
L 1231.063583 -1075.876364 
L 1172.816471 -1031.4 
L 1105.575116 -986.923636 
L 1026.045472 -972.098182 
L 928.709055 -897.970909 
L 803.220588 -823.843636 
L 626.354528 -675.589091 
L 324 -527.334545 
z
" style="stroke: #ff7f0e; stroke-opacity: 0.1"/>
    </defs>
    <g clip-path="url(#p52cf7d367e)">
     <use xlink:href="#m4146705462" x="0" y="1728" style="fill: #ff7f0e; fill-opacity: 0.1; stroke: #ff7f0e; stroke-opacity: 0.1"/>
    </g>
   </g>
   <g id="matplotlib.axis_1">
    <g id="xtick_1">
     <g id="line2d_1">
      <path d="M 324 1512 
L 324 207.36 
" clip-path="url(#p52cf7d367e)" style="fill: none; stroke: #b0b0b0; stroke-width: 0.8; stroke-linecap: square"/>
     </g>
     <g id="line2d_2">
      <defs>
       <path id="me082fac76d" d="M 0 0 
L 0 10 
" style="stroke: #000000; stroke-width: 2"/>
      </defs>
      <g>
       <use xlink:href="#me082fac76d" x="324" y="1512" style="stroke: #000000; stroke-width: 2"/>
      </g>
     </g>
     <g id="text_1">
      <!-- 1 -->
      <g transform="translate(310.0025 1570.433125) scale(0.44 -0.44)">
       <defs>
        <path id="DejaVuSans-31" d="M 794 531 
L 1825 531 
L 1825 4091 
L 703 3866 
L 703 4441 
L 1819 4666 
L 2450 4666 
L 2450 531 
L 3481 531 
L 3481 0 
L 794 0 
L 794 531 
z
" transform="scale(0.015625)"/>
       </defs>
       <use xlink:href="#DejaVuSans-31"/>
      </g>
     </g>
    </g>
    <g id="xtick_2">
     <g id="line2d_3">
      <path d="M 1328.4 1512 
L 1328.4 207.36 
" clip-path="url(#p52cf7d367e)" style="fill: none; stroke: #b0b0b0; stroke-width: 0.8; stroke-linecap: square"/>
     </g>
     <g id="line2d_4">
      <g>
       <use xlink:href="#me082fac76d" x="1328.4" y="1512" style="stroke: #000000; stroke-width: 2"/>
      </g>
     </g>
     <g id="text_2">
      <!-- 10 -->
      <g transform="translate(1300.405 1570.433125) scale(0.44 -0.44)">
       <defs>
        <path id="DejaVuSans-30" d="M 2034 4250 
Q 1547 4250 1301 3770 
Q 1056 3291 1056 2328 
Q 1056 1369 1301 889 
Q 1547 409 2034 409 
Q 2525 409 2770 889 
Q 3016 1369 3016 2328 
Q 3016 3291 2770 3770 
Q 2525 4250 2034 4250 
z
M 2034 4750 
Q 2819 4750 3233 4129 
Q 3647 3509 3647 2328 
Q 3647 1150 3233 529 
Q 2819 -91 2034 -91 
Q 1250 -91 836 529 
Q 422 1150 422 2328 
Q 422 3509 836 4129 
Q 1250 4750 2034 4750 
z
" transform="scale(0.015625)"/>
       </defs>
       <use xlink:href="#DejaVuSans-31"/>
       <use xlink:href="#DejaVuSans-30" x="63.623047"/>
      </g>
     </g>
    </g>
    <g id="xtick_3">
     <g id="line2d_5">
      <path d="M 2332.8 1512 
L 2332.8 207.36 
" clip-path="url(#p52cf7d367e)" style="fill: none; stroke: #b0b0b0; stroke-width: 0.8; stroke-linecap: square"/>
     </g>
     <g id="line2d_6">
      <g>
       <use xlink:href="#me082fac76d" x="2332.8" y="1512" style="stroke: #000000; stroke-width: 2"/>
      </g>
     </g>
     <g id="text_3">
      <!-- 100 -->
      <g transform="translate(2290.8075 1570.433125) scale(0.44 -0.44)">
       <use xlink:href="#DejaVuSans-31"/>
       <use xlink:href="#DejaVuSans-30" x="63.623047"/>
       <use xlink:href="#DejaVuSans-30" x="127.246094"/>
      </g>
     </g>
    </g>
    <g id="xtick_4">
     <g id="line2d_7">
      <defs>
       <path id="m1d915fcb9d" d="M 0 0 
L 0 2 
" style="stroke: #000000; stroke-width: 0.6"/>
      </defs>
      <g>
       <use xlink:href="#m1d915fcb9d" x="626.354528" y="1512" style="stroke: #000000; stroke-width: 0.6"/>
      </g>
     </g>
    </g>
    <g id="xtick_5">
     <g id="line2d_8">
      <g>
       <use xlink:href="#m1d915fcb9d" x="803.220588" y="1512" style="stroke: #000000; stroke-width: 0.6"/>
      </g>
     </g>
    </g>
    <g id="xtick_6">
     <g id="line2d_9">
      <g>
       <use xlink:href="#m1d915fcb9d" x="928.709055" y="1512" style="stroke: #000000; stroke-width: 0.6"/>
      </g>
     </g>
    </g>
    <g id="xtick_7">
     <g id="line2d_10">
      <g>
       <use xlink:href="#m1d915fcb9d" x="1026.045472" y="1512" style="stroke: #000000; stroke-width: 0.6"/>
      </g>
     </g>
    </g>
    <g id="xtick_8">
     <g id="line2d_11">
      <g>
       <use xlink:href="#m1d915fcb9d" x="1105.575116" y="1512" style="stroke: #000000; stroke-width: 0.6"/>
      </g>
     </g>
    </g>
    <g id="xtick_9">
     <g id="line2d_12">
      <g>
       <use xlink:href="#m1d915fcb9d" x="1172.816471" y="1512" style="stroke: #000000; stroke-width: 0.6"/>
      </g>
     </g>
    </g>
    <g id="xtick_10">
     <g id="line2d_13">
      <g>
       <use xlink:href="#m1d915fcb9d" x="1231.063583" y="1512" style="stroke: #000000; stroke-width: 0.6"/>
      </g>
     </g>
    </g>
    <g id="xtick_11">
     <g id="line2d_14">
      <g>
       <use xlink:href="#m1d915fcb9d" x="1282.441176" y="1512" style="stroke: #000000; stroke-width: 0.6"/>
      </g>
     </g>
    </g>
    <g id="xtick_12">
     <g id="line2d_15">
      <g>
       <use xlink:href="#m1d915fcb9d" x="1630.754528" y="1512" style="stroke: #000000; stroke-width: 0.6"/>
      </g>
     </g>
    </g>
    <g id="xtick_13">
     <g id="line2d_16">
      <g>
       <use xlink:href="#m1d915fcb9d" x="1807.620588" y="1512" style="stroke: #000000; stroke-width: 0.6"/>
      </g>
     </g>
    </g>
    <g id="xtick_14">
     <g id="line2d_17">
      <g>
       <use xlink:href="#m1d915fcb9d" x="1933.109055" y="1512" style="stroke: #000000; stroke-width: 0.6"/>
      </g>
     </g>
    </g>
    <g id="xtick_15">
     <g id="line2d_18">
      <g>
       <use xlink:href="#m1d915fcb9d" x="2030.445472" y="1512" style="stroke: #000000; stroke-width: 0.6"/>
      </g>
     </g>
    </g>
    <g id="xtick_16">
     <g id="line2d_19">
      <g>
       <use xlink:href="#m1d915fcb9d" x="2109.975116" y="1512" style="stroke: #000000; stroke-width: 0.6"/>
      </g>
     </g>
    </g>
    <g id="xtick_17">
     <g id="line2d_20">
      <g>
       <use xlink:href="#m1d915fcb9d" x="2177.216471" y="1512" style="stroke: #000000; stroke-width: 0.6"/>
      </g>
     </g>
    </g>
    <g id="xtick_18">
     <g id="line2d_21">
      <g>
       <use xlink:href="#m1d915fcb9d" x="2235.463583" y="1512" style="stroke: #000000; stroke-width: 0.6"/>
      </g>
     </g>
    </g>
    <g id="xtick_19">
     <g id="line2d_22">
      <g>
       <use xlink:href="#m1d915fcb9d" x="2286.841176" y="1512" style="stroke: #000000; stroke-width: 0.6"/>
      </g>
     </g>
    </g>
    <g id="text_4">
     <!-- Top-k -->
     <g transform="translate(1265.34375 1620.05625) scale(0.48 -0.48)">
      <defs>
       <path id="DejaVuSans-54" d="M -19 4666 
L 3928 4666 
L 3928 4134 
L 2272 4134 
L 2272 0 
L 1638 0 
L 1638 4134 
L -19 4134 
L -19 4666 
z
" transform="scale(0.015625)"/>
       <path id="DejaVuSans-6f" d="M 1959 3097 
Q 1497 3097 1228 2736 
Q 959 2375 959 1747 
Q 959 1119 1226 758 
Q 1494 397 1959 397 
Q 2419 397 2687 759 
Q 2956 1122 2956 1747 
Q 2956 2369 2687 2733 
Q 2419 3097 1959 3097 
z
M 1959 3584 
Q 2709 3584 3137 3096 
Q 3566 2609 3566 1747 
Q 3566 888 3137 398 
Q 2709 -91 1959 -91 
Q 1206 -91 779 398 
Q 353 888 353 1747 
Q 353 2609 779 3096 
Q 1206 3584 1959 3584 
z
" transform="scale(0.015625)"/>
       <path id="DejaVuSans-70" d="M 1159 525 
L 1159 -1331 
L 581 -1331 
L 581 3500 
L 1159 3500 
L 1159 2969 
Q 1341 3281 1617 3432 
Q 1894 3584 2278 3584 
Q 2916 3584 3314 3078 
Q 3713 2572 3713 1747 
Q 3713 922 3314 415 
Q 2916 -91 2278 -91 
Q 1894 -91 1617 61 
Q 1341 213 1159 525 
z
M 3116 1747 
Q 3116 2381 2855 2742 
Q 2594 3103 2138 3103 
Q 1681 3103 1420 2742 
Q 1159 2381 1159 1747 
Q 1159 1113 1420 752 
Q 1681 391 2138 391 
Q 2594 391 2855 752 
Q 3116 1113 3116 1747 
z
" transform="scale(0.015625)"/>
       <path id="DejaVuSans-2d" d="M 313 2009 
L 1997 2009 
L 1997 1497 
L 313 1497 
L 313 2009 
z
" transform="scale(0.015625)"/>
       <path id="DejaVuSans-6b" d="M 581 4863 
L 1159 4863 
L 1159 1991 
L 2875 3500 
L 3609 3500 
L 1753 1863 
L 3688 0 
L 2938 0 
L 1159 1709 
L 1159 0 
L 581 0 
L 581 4863 
z
" transform="scale(0.015625)"/>
      </defs>
      <use xlink:href="#DejaVuSans-54"/>
      <use xlink:href="#DejaVuSans-6f" x="44.083984"/>
      <use xlink:href="#DejaVuSans-70" x="105.265625"/>
      <use xlink:href="#DejaVuSans-2d" x="168.742188"/>
      <use xlink:href="#DejaVuSans-6b" x="204.826172"/>
     </g>
    </g>
   </g>
   <g id="matplotlib.axis_2">
    <g id="ytick_1">
     <g id="line2d_23">
      <path d="M 324 1381.536 
L 2332.8 1381.536 
" clip-path="url(#p52cf7d367e)" style="fill: none; stroke: #b0b0b0; stroke-width: 0.8; stroke-linecap: square"/>
     </g>
     <g id="line2d_24">
      <defs>
       <path id="m7698a61744" d="M 0 0 
L -10 0 
" style="stroke: #000000; stroke-width: 2"/>
      </defs>
      <g>
       <use xlink:href="#m7698a61744" x="324" y="1381.536" style="stroke: #000000; stroke-width: 2"/>
      </g>
     </g>
     <g id="text_5">
      <!-- 20 -->
      <g transform="translate(243.01 1398.252562) scale(0.44 -0.44)">
       <defs>
        <path id="DejaVuSans-32" d="M 1228 531 
L 3431 531 
L 3431 0 
L 469 0 
L 469 531 
Q 828 903 1448 1529 
Q 2069 2156 2228 2338 
Q 2531 2678 2651 2914 
Q 2772 3150 2772 3378 
Q 2772 3750 2511 3984 
Q 2250 4219 1831 4219 
Q 1534 4219 1204 4116 
Q 875 4013 500 3803 
L 500 4441 
Q 881 4594 1212 4672 
Q 1544 4750 1819 4750 
Q 2544 4750 2975 4387 
Q 3406 4025 3406 3419 
Q 3406 3131 3298 2873 
Q 3191 2616 2906 2266 
Q 2828 2175 2409 1742 
Q 1991 1309 1228 531 
z
" transform="scale(0.015625)"/>
       </defs>
       <use xlink:href="#DejaVuSans-32"/>
       <use xlink:href="#DejaVuSans-30" x="63.623047"/>
      </g>
     </g>
    </g>
    <g id="ytick_2">
     <g id="line2d_25">
      <path d="M 324 1102.817455 
L 2332.8 1102.817455 
" clip-path="url(#p52cf7d367e)" style="fill: none; stroke: #b0b0b0; stroke-width: 0.8; stroke-linecap: square"/>
     </g>
     <g id="line2d_26">
      <g>
       <use xlink:href="#m7698a61744" x="324" y="1102.817455" style="stroke: #000000; stroke-width: 2"/>
      </g>
     </g>
     <g id="text_6">
      <!-- 40 -->
      <g transform="translate(243.01 1119.534017) scale(0.44 -0.44)">
       <defs>
        <path id="DejaVuSans-34" d="M 2419 4116 
L 825 1625 
L 2419 1625 
L 2419 4116 
z
M 2253 4666 
L 3047 4666 
L 3047 1625 
L 3713 1625 
L 3713 1100 
L 3047 1100 
L 3047 0 
L 2419 0 
L 2419 1100 
L 313 1100 
L 313 1709 
L 2253 4666 
z
" transform="scale(0.015625)"/>
       </defs>
       <use xlink:href="#DejaVuSans-34"/>
       <use xlink:href="#DejaVuSans-30" x="63.623047"/>
      </g>
     </g>
    </g>
    <g id="ytick_3">
     <g id="line2d_27">
      <path d="M 324 824.098909 
L 2332.8 824.098909 
" clip-path="url(#p52cf7d367e)" style="fill: none; stroke: #b0b0b0; stroke-width: 0.8; stroke-linecap: square"/>
     </g>
     <g id="line2d_28">
      <g>
       <use xlink:href="#m7698a61744" x="324" y="824.098909" style="stroke: #000000; stroke-width: 2"/>
      </g>
     </g>
     <g id="text_7">
      <!-- 60 -->
      <g transform="translate(243.01 840.815472) scale(0.44 -0.44)">
       <defs>
        <path id="DejaVuSans-36" d="M 2113 2584 
Q 1688 2584 1439 2293 
Q 1191 2003 1191 1497 
Q 1191 994 1439 701 
Q 1688 409 2113 409 
Q 2538 409 2786 701 
Q 3034 994 3034 1497 
Q 3034 2003 2786 2293 
Q 2538 2584 2113 2584 
z
M 3366 4563 
L 3366 3988 
Q 3128 4100 2886 4159 
Q 2644 4219 2406 4219 
Q 1781 4219 1451 3797 
Q 1122 3375 1075 2522 
Q 1259 2794 1537 2939 
Q 1816 3084 2150 3084 
Q 2853 3084 3261 2657 
Q 3669 2231 3669 1497 
Q 3669 778 3244 343 
Q 2819 -91 2113 -91 
Q 1303 -91 875 529 
Q 447 1150 447 2328 
Q 447 3434 972 4092 
Q 1497 4750 2381 4750 
Q 2619 4750 2861 4703 
Q 3103 4656 3366 4563 
z
" transform="scale(0.015625)"/>
       </defs>
       <use xlink:href="#DejaVuSans-36"/>
       <use xlink:href="#DejaVuSans-30" x="63.623047"/>
      </g>
     </g>
    </g>
    <g id="ytick_4">
     <g id="line2d_29">
      <path d="M 324 545.380364 
L 2332.8 545.380364 
" clip-path="url(#p52cf7d367e)" style="fill: none; stroke: #b0b0b0; stroke-width: 0.8; stroke-linecap: square"/>
     </g>
     <g id="line2d_30">
      <g>
       <use xlink:href="#m7698a61744" x="324" y="545.380364" style="stroke: #000000; stroke-width: 2"/>
      </g>
     </g>
     <g id="text_8">
      <!-- 80 -->
      <g transform="translate(243.01 562.096926) scale(0.44 -0.44)">
       <defs>
        <path id="DejaVuSans-38" d="M 2034 2216 
Q 1584 2216 1326 1975 
Q 1069 1734 1069 1313 
Q 1069 891 1326 650 
Q 1584 409 2034 409 
Q 2484 409 2743 651 
Q 3003 894 3003 1313 
Q 3003 1734 2745 1975 
Q 2488 2216 2034 2216 
z
M 1403 2484 
Q 997 2584 770 2862 
Q 544 3141 544 3541 
Q 544 4100 942 4425 
Q 1341 4750 2034 4750 
Q 2731 4750 3128 4425 
Q 3525 4100 3525 3541 
Q 3525 3141 3298 2862 
Q 3072 2584 2669 2484 
Q 3125 2378 3379 2068 
Q 3634 1759 3634 1313 
Q 3634 634 3220 271 
Q 2806 -91 2034 -91 
Q 1263 -91 848 271 
Q 434 634 434 1313 
Q 434 1759 690 2068 
Q 947 2378 1403 2484 
z
M 1172 3481 
Q 1172 3119 1398 2916 
Q 1625 2713 2034 2713 
Q 2441 2713 2670 2916 
Q 2900 3119 2900 3481 
Q 2900 3844 2670 4047 
Q 2441 4250 2034 4250 
Q 1625 4250 1398 4047 
Q 1172 3844 1172 3481 
z
" transform="scale(0.015625)"/>
       </defs>
       <use xlink:href="#DejaVuSans-38"/>
       <use xlink:href="#DejaVuSans-30" x="63.623047"/>
      </g>
     </g>
    </g>
    <g id="ytick_5">
     <g id="line2d_31">
      <path d="M 324 266.661818 
L 2332.8 266.661818 
" clip-path="url(#p52cf7d367e)" style="fill: none; stroke: #b0b0b0; stroke-width: 0.8; stroke-linecap: square"/>
     </g>
     <g id="line2d_32">
      <g>
       <use xlink:href="#m7698a61744" x="324" y="266.661818" style="stroke: #000000; stroke-width: 2"/>
      </g>
     </g>
     <g id="text_9">
      <!-- 100 -->
      <g transform="translate(215.015 283.378381) scale(0.44 -0.44)">
       <use xlink:href="#DejaVuSans-31"/>
       <use xlink:href="#DejaVuSans-30" x="63.623047"/>
       <use xlink:href="#DejaVuSans-30" x="127.246094"/>
      </g>
     </g>
    </g>
    <g id="text_10">
     <!-- Accuracy (%) -->
     <g transform="translate(201.0325 1018.41375) rotate(-90) scale(0.48 -0.48)">
      <defs>
       <path id="DejaVuSans-41" d="M 2188 4044 
L 1331 1722 
L 3047 1722 
L 2188 4044 
z
M 1831 4666 
L 2547 4666 
L 4325 0 
L 3669 0 
L 3244 1197 
L 1141 1197 
L 716 0 
L 50 0 
L 1831 4666 
z
" transform="scale(0.015625)"/>
       <path id="DejaVuSans-63" d="M 3122 3366 
L 3122 2828 
Q 2878 2963 2633 3030 
Q 2388 3097 2138 3097 
Q 1578 3097 1268 2742 
Q 959 2388 959 1747 
Q 959 1106 1268 751 
Q 1578 397 2138 397 
Q 2388 397 2633 464 
Q 2878 531 3122 666 
L 3122 134 
Q 2881 22 2623 -34 
Q 2366 -91 2075 -91 
Q 1284 -91 818 406 
Q 353 903 353 1747 
Q 353 2603 823 3093 
Q 1294 3584 2113 3584 
Q 2378 3584 2631 3529 
Q 2884 3475 3122 3366 
z
" transform="scale(0.015625)"/>
       <path id="DejaVuSans-75" d="M 544 1381 
L 544 3500 
L 1119 3500 
L 1119 1403 
Q 1119 906 1312 657 
Q 1506 409 1894 409 
Q 2359 409 2629 706 
Q 2900 1003 2900 1516 
L 2900 3500 
L 3475 3500 
L 3475 0 
L 2900 0 
L 2900 538 
Q 2691 219 2414 64 
Q 2138 -91 1772 -91 
Q 1169 -91 856 284 
Q 544 659 544 1381 
z
M 1991 3584 
L 1991 3584 
z
" transform="scale(0.015625)"/>
       <path id="DejaVuSans-72" d="M 2631 2963 
Q 2534 3019 2420 3045 
Q 2306 3072 2169 3072 
Q 1681 3072 1420 2755 
Q 1159 2438 1159 1844 
L 1159 0 
L 581 0 
L 581 3500 
L 1159 3500 
L 1159 2956 
Q 1341 3275 1631 3429 
Q 1922 3584 2338 3584 
Q 2397 3584 2469 3576 
Q 2541 3569 2628 3553 
L 2631 2963 
z
" transform="scale(0.015625)"/>
       <path id="DejaVuSans-61" d="M 2194 1759 
Q 1497 1759 1228 1600 
Q 959 1441 959 1056 
Q 959 750 1161 570 
Q 1363 391 1709 391 
Q 2188 391 2477 730 
Q 2766 1069 2766 1631 
L 2766 1759 
L 2194 1759 
z
M 3341 1997 
L 3341 0 
L 2766 0 
L 2766 531 
Q 2569 213 2275 61 
Q 1981 -91 1556 -91 
Q 1019 -91 701 211 
Q 384 513 384 1019 
Q 384 1609 779 1909 
Q 1175 2209 1959 2209 
L 2766 2209 
L 2766 2266 
Q 2766 2663 2505 2880 
Q 2244 3097 1772 3097 
Q 1472 3097 1187 3025 
Q 903 2953 641 2809 
L 641 3341 
Q 956 3463 1253 3523 
Q 1550 3584 1831 3584 
Q 2591 3584 2966 3190 
Q 3341 2797 3341 1997 
z
" transform="scale(0.015625)"/>
       <path id="DejaVuSans-79" d="M 2059 -325 
Q 1816 -950 1584 -1140 
Q 1353 -1331 966 -1331 
L 506 -1331 
L 506 -850 
L 844 -850 
Q 1081 -850 1212 -737 
Q 1344 -625 1503 -206 
L 1606 56 
L 191 3500 
L 800 3500 
L 1894 763 
L 2988 3500 
L 3597 3500 
L 2059 -325 
z
" transform="scale(0.015625)"/>
       <path id="DejaVuSans-20" transform="scale(0.015625)"/>
       <path id="DejaVuSans-28" d="M 1984 4856 
Q 1566 4138 1362 3434 
Q 1159 2731 1159 2009 
Q 1159 1288 1364 580 
Q 1569 -128 1984 -844 
L 1484 -844 
Q 1016 -109 783 600 
Q 550 1309 550 2009 
Q 550 2706 781 3412 
Q 1013 4119 1484 4856 
L 1984 4856 
z
" transform="scale(0.015625)"/>
       <path id="DejaVuSans-25" d="M 4653 2053 
Q 4381 2053 4226 1822 
Q 4072 1591 4072 1178 
Q 4072 772 4226 539 
Q 4381 306 4653 306 
Q 4919 306 5073 539 
Q 5228 772 5228 1178 
Q 5228 1588 5073 1820 
Q 4919 2053 4653 2053 
z
M 4653 2450 
Q 5147 2450 5437 2106 
Q 5728 1763 5728 1178 
Q 5728 594 5436 251 
Q 5144 -91 4653 -91 
Q 4153 -91 3862 251 
Q 3572 594 3572 1178 
Q 3572 1766 3864 2108 
Q 4156 2450 4653 2450 
z
M 1428 4353 
Q 1159 4353 1004 4120 
Q 850 3888 850 3481 
Q 850 3069 1003 2837 
Q 1156 2606 1428 2606 
Q 1700 2606 1854 2837 
Q 2009 3069 2009 3481 
Q 2009 3884 1853 4118 
Q 1697 4353 1428 4353 
z
M 4250 4750 
L 4750 4750 
L 1831 -91 
L 1331 -91 
L 4250 4750 
z
M 1428 4750 
Q 1922 4750 2215 4408 
Q 2509 4066 2509 3481 
Q 2509 2891 2217 2550 
Q 1925 2209 1428 2209 
Q 931 2209 642 2551 
Q 353 2894 353 3481 
Q 353 4063 643 4406 
Q 934 4750 1428 4750 
z
" transform="scale(0.015625)"/>
       <path id="DejaVuSans-29" d="M 513 4856 
L 1013 4856 
Q 1481 4119 1714 3412 
Q 1947 2706 1947 2009 
Q 1947 1309 1714 600 
Q 1481 -109 1013 -844 
L 513 -844 
Q 928 -128 1133 580 
Q 1338 1288 1338 2009 
Q 1338 2731 1133 3434 
Q 928 4138 513 4856 
z
" transform="scale(0.015625)"/>
      </defs>
      <use xlink:href="#DejaVuSans-41"/>
      <use xlink:href="#DejaVuSans-63" x="66.658203"/>
      <use xlink:href="#DejaVuSans-63" x="121.638672"/>
      <use xlink:href="#DejaVuSans-75" x="176.619141"/>
      <use xlink:href="#DejaVuSans-72" x="239.998047"/>
      <use xlink:href="#DejaVuSans-61" x="281.111328"/>
      <use xlink:href="#DejaVuSans-63" x="342.390625"/>
      <use xlink:href="#DejaVuSans-79" x="397.371094"/>
      <use xlink:href="#DejaVuSans-20" x="456.550781"/>
      <use xlink:href="#DejaVuSans-28" x="488.337891"/>
      <use xlink:href="#DejaVuSans-25" x="527.351562"/>
      <use xlink:href="#DejaVuSans-29" x="622.371094"/>
     </g>
    </g>
   </g>
   <g id="line2d_33">
    <path d="M 324 948.632727 
L 626.354528 830.029091 
L 803.220588 785.552727 
L 928.709055 726.250909 
L 1026.045472 622.472727 
L 1105.575116 592.821818 
L 1172.816471 592.821818 
L 1231.063583 592.821818 
L 1282.441176 563.170909 
L 1328.4 503.869091 
L 1369.974813 489.043636 
L 1407.929644 489.043636 
L 1442.844703 489.043636 
L 1475.170999 489.043636 
L 1505.266061 459.392727 
L 1533.418111 444.567273 
L 1559.862897 444.567273 
L 1584.795704 444.567273 
L 1608.380117 444.567273 
L 1630.754528 444.567273 
L 1652.03706 429.741818 
L 1672.329341 414.916364 
L 1691.719438 414.916364 
L 1710.284171 414.916364 
L 1728.090945 414.916364 
L 1745.199231 414.916364 
L 1761.661765 400.090909 
L 1777.525527 400.090909 
L 1792.832549 400.090909 
L 1807.620588 400.090909 
L 1821.923685 400.090909 
L 1835.772638 400.090909 
L 1849.195401 400.090909 
L 1862.217424 400.090909 
L 1874.861944 385.265455 
L 1887.150232 385.265455 
L 1899.101812 385.265455 
L 1910.734644 385.265455 
L 1922.065291 385.265455 
L 1933.109055 385.265455 
L 1943.880106 385.265455 
L 1954.391587 385.265455 
L 1964.655717 370.44 
L 1974.683868 370.44 
L 1984.486649 355.614545 
L 1994.073966 355.614545 
L 2003.455089 355.614545 
L 2012.638699 355.614545 
L 2021.632943 355.614545 
L 2030.445472 355.614545 
L 2039.083485 355.614545 
L 2047.553758 355.614545 
L 2055.862683 355.614545 
L 2064.016292 355.614545 
L 2072.020285 355.614545 
L 2079.880054 355.614545 
L 2087.600705 355.614545 
L 2095.187077 355.614545 
L 2102.64376 355.614545 
L 2109.975116 355.614545 
L 2117.185286 355.614545 
L 2124.278213 355.614545 
L 2131.257648 355.614545 
L 2138.127166 355.614545 
L 2144.890175 355.614545 
L 2151.549929 355.614545 
L 2158.109532 355.614545 
L 2164.571952 355.614545 
L 2170.940027 340.789091 
L 2177.216471 340.789091 
L 2183.403885 340.789091 
L 2189.504759 325.963636 
L 2195.521481 325.963636 
L 2201.456339 325.963636 
L 2207.311533 325.963636 
L 2213.089172 325.963636 
L 2218.791284 325.963636 
L 2224.419819 325.963636 
L 2229.97665 325.963636 
L 2235.463583 325.963636 
L 2240.882353 325.963636 
L 2246.234633 325.963636 
L 2251.522036 325.963636 
L 2256.746115 325.963636 
L 2261.908369 325.963636 
L 2267.010244 325.963636 
L 2272.053137 325.963636 
L 2277.038396 325.963636 
L 2281.967323 325.963636 
L 2286.841176 325.963636 
L 2291.661174 325.963636 
L 2296.428494 325.963636 
L 2301.144274 325.963636 
L 2305.809616 325.963636 
L 2310.425589 325.963636 
L 2314.993226 325.963636 
L 2319.51353 325.963636 
L 2323.98747 325.963636 
L 2328.415989 325.963636 
L 2332.8 325.963636 
" clip-path="url(#p52cf7d367e)" style="fill: none; stroke: #1f77b4; stroke-width: 7; stroke-linecap: square"/>
   </g>
   <g id="line2d_34">
    <defs>
     <path id="ma69acedb9a" d="M 0 9 
C 2.386828 9 4.676219 8.051703 6.363961 6.363961 
C 8.051703 4.676219 9 2.386828 9 0 
C 9 -2.386828 8.051703 -4.676219 6.363961 -6.363961 
C 4.676219 -8.051703 2.386828 -9 0 -9 
C -2.386828 -9 -4.676219 -8.051703 -6.363961 -6.363961 
C -8.051703 -4.676219 -9 -2.386828 -9 0 
C -9 2.386828 -8.051703 4.676219 -6.363961 6.363961 
C -4.676219 8.051703 -2.386828 9 0 9 
z
" style="stroke: #1f77b4"/>
    </defs>
    <g clip-path="url(#p52cf7d367e)">
     <use xlink:href="#ma69acedb9a" x="1328.4" y="503.869091" style="fill: #1f77b4; stroke: #1f77b4"/>
    </g>
   </g>
   <g id="line2d_35">
    <path d="M 324 1319.269091 
L 626.354528 1185.84 
L 803.220588 1037.585455 
L 928.709055 963.458182 
L 1026.045472 889.330909 
L 1105.575116 874.505455 
L 1172.816471 830.029091 
L 1231.063583 785.552727 
L 1282.441176 770.727273 
L 1328.4 711.425455 
L 1369.974813 711.425455 
L 1407.929644 696.6 
L 1442.844703 666.949091 
L 1475.170999 666.949091 
L 1505.266061 652.123636 
L 1533.418111 622.472727 
L 1559.862897 622.472727 
L 1584.795704 563.170909 
L 1608.380117 533.52 
L 1630.754528 533.52 
L 1652.03706 533.52 
L 1672.329341 518.694545 
L 1691.719438 503.869091 
L 1710.284171 503.869091 
L 1728.090945 503.869091 
L 1745.199231 503.869091 
L 1761.661765 503.869091 
L 1777.525527 503.869091 
L 1792.832549 503.869091 
L 1807.620588 503.869091 
L 1821.923685 503.869091 
L 1835.772638 503.869091 
L 1849.195401 503.869091 
L 1862.217424 489.043636 
L 1874.861944 489.043636 
L 1887.150232 489.043636 
L 1899.101812 474.218182 
L 1910.734644 474.218182 
L 1922.065291 474.218182 
L 1933.109055 474.218182 
L 1943.880106 474.218182 
L 1954.391587 474.218182 
L 1964.655717 474.218182 
L 1974.683868 459.392727 
L 1984.486649 459.392727 
L 1994.073966 459.392727 
L 2003.455089 459.392727 
L 2012.638699 459.392727 
L 2021.632943 444.567273 
L 2030.445472 429.741818 
L 2039.083485 429.741818 
L 2047.553758 414.916364 
L 2055.862683 414.916364 
L 2064.016292 414.916364 
L 2072.020285 414.916364 
L 2079.880054 414.916364 
L 2087.600705 400.090909 
L 2095.187077 400.090909 
L 2102.64376 400.090909 
L 2109.975116 400.090909 
L 2117.185286 400.090909 
L 2124.278213 400.090909 
L 2131.257648 400.090909 
L 2138.127166 400.090909 
L 2144.890175 400.090909 
L 2151.549929 400.090909 
L 2158.109532 400.090909 
L 2164.571952 400.090909 
L 2170.940027 400.090909 
L 2177.216471 400.090909 
L 2183.403885 400.090909 
L 2189.504759 400.090909 
L 2195.521481 400.090909 
L 2201.456339 385.265455 
L 2207.311533 385.265455 
L 2213.089172 385.265455 
L 2218.791284 370.44 
L 2224.419819 355.614545 
L 2229.97665 355.614545 
L 2235.463583 355.614545 
L 2240.882353 355.614545 
L 2246.234633 355.614545 
L 2251.522036 355.614545 
L 2256.746115 355.614545 
L 2261.908369 355.614545 
L 2267.010244 355.614545 
L 2272.053137 355.614545 
L 2277.038396 355.614545 
L 2281.967323 355.614545 
L 2286.841176 355.614545 
L 2291.661174 355.614545 
L 2296.428494 355.614545 
L 2301.144274 340.789091 
L 2305.809616 340.789091 
L 2310.425589 340.789091 
L 2314.993226 340.789091 
L 2319.51353 340.789091 
L 2323.98747 340.789091 
L 2328.415989 340.789091 
L 2332.8 340.789091 
" clip-path="url(#p52cf7d367e)" style="fill: none; stroke: #ff7f0e; stroke-width: 7; stroke-linecap: square"/>
   </g>
   <g id="line2d_36">
    <defs>
     <path id="md2f601759a" d="M 0 9 
C 2.386828 9 4.676219 8.051703 6.363961 6.363961 
C 8.051703 4.676219 9 2.386828 9 0 
C 9 -2.386828 8.051703 -4.676219 6.363961 -6.363961 
C 4.676219 -8.051703 2.386828 -9 0 -9 
C -2.386828 -9 -4.676219 -8.051703 -6.363961 -6.363961 
C -8.051703 -4.676219 -9 -2.386828 -9 0 
C -9 2.386828 -8.051703 4.676219 -6.363961 6.363961 
C -4.676219 8.051703 -2.386828 9 0 9 
z
" style="stroke: #ff7f0e"/>
    </defs>
    <g clip-path="url(#p52cf7d367e)">
     <use xlink:href="#md2f601759a" x="1328.4" y="711.425455" style="fill: #ff7f0e; stroke: #ff7f0e"/>
    </g>
   </g>
   <g id="patch_3">
    <path d="M 324 1512 
L 324 207.36 
" style="fill: none; stroke: #000000; stroke-width: 0.8; stroke-linejoin: miter; stroke-linecap: square"/>
   </g>
   <g id="patch_4">
    <path d="M 2332.8 1512 
L 2332.8 207.36 
" style="fill: none; stroke: #000000; stroke-width: 0.8; stroke-linejoin: miter; stroke-linecap: square"/>
   </g>
   <g id="patch_5">
    <path d="M 324 1512 
L 2332.8 1512 
" style="fill: none; stroke: #000000; stroke-width: 0.8; stroke-linejoin: miter; stroke-linecap: square"/>
   </g>
   <g id="patch_6">
    <path d="M 324 207.36 
L 2332.8 207.36 
" style="fill: none; stroke: #000000; stroke-width: 0.8; stroke-linejoin: miter; stroke-linecap: square"/>
   </g>
   <g id="legend_1">
    <g id="patch_7">
     <path d="M 1398.620313 1421.768 
L 2297.8 1421.768 
Q 2307.8 1421.768 2307.8 1411.768 
L 2307.8 1269.98675 
Q 2307.8 1259.98675 2297.8 1259.98675 
L 1398.620313 1259.98675 
Q 1388.620313 1259.98675 1388.620313 1269.98675 
L 1388.620313 1411.768 
Q 1388.620313 1421.768 1398.620313 1421.768 
z
" style="fill: #ffffff; opacity: 0.8; stroke: #cccccc; stroke-linejoin: miter"/>
    </g>
    <g id="line2d_37">
     <path d="M 1408.620313 1300.478938 
L 1458.620313 1300.478938 
L 1508.620313 1300.478938 
" style="fill: none; stroke: #1f77b4; stroke-width: 14; stroke-linecap: square"/>
    </g>
    <g id="text_11">
     <!-- PEDIA = CADD + CADA + GM -->
     <g transform="translate(1548.620313 1317.978938) scale(0.5 -0.5)">
      <defs>
       <path id="DejaVuSans-50" d="M 1259 4147 
L 1259 2394 
L 2053 2394 
Q 2494 2394 2734 2622 
Q 2975 2850 2975 3272 
Q 2975 3691 2734 3919 
Q 2494 4147 2053 4147 
L 1259 4147 
z
M 628 4666 
L 2053 4666 
Q 2838 4666 3239 4311 
Q 3641 3956 3641 3272 
Q 3641 2581 3239 2228 
Q 2838 1875 2053 1875 
L 1259 1875 
L 1259 0 
L 628 0 
L 628 4666 
z
" transform="scale(0.015625)"/>
       <path id="DejaVuSans-45" d="M 628 4666 
L 3578 4666 
L 3578 4134 
L 1259 4134 
L 1259 2753 
L 3481 2753 
L 3481 2222 
L 1259 2222 
L 1259 531 
L 3634 531 
L 3634 0 
L 628 0 
L 628 4666 
z
" transform="scale(0.015625)"/>
       <path id="DejaVuSans-44" d="M 1259 4147 
L 1259 519 
L 2022 519 
Q 2988 519 3436 956 
Q 3884 1394 3884 2338 
Q 3884 3275 3436 3711 
Q 2988 4147 2022 4147 
L 1259 4147 
z
M 628 4666 
L 1925 4666 
Q 3281 4666 3915 4102 
Q 4550 3538 4550 2338 
Q 4550 1131 3912 565 
Q 3275 0 1925 0 
L 628 0 
L 628 4666 
z
" transform="scale(0.015625)"/>
       <path id="DejaVuSans-49" d="M 628 4666 
L 1259 4666 
L 1259 0 
L 628 0 
L 628 4666 
z
" transform="scale(0.015625)"/>
       <path id="DejaVuSans-3d" d="M 678 2906 
L 4684 2906 
L 4684 2381 
L 678 2381 
L 678 2906 
z
M 678 1631 
L 4684 1631 
L 4684 1100 
L 678 1100 
L 678 1631 
z
" transform="scale(0.015625)"/>
       <path id="DejaVuSans-43" d="M 4122 4306 
L 4122 3641 
Q 3803 3938 3442 4084 
Q 3081 4231 2675 4231 
Q 1875 4231 1450 3742 
Q 1025 3253 1025 2328 
Q 1025 1406 1450 917 
Q 1875 428 2675 428 
Q 3081 428 3442 575 
Q 3803 722 4122 1019 
L 4122 359 
Q 3791 134 3420 21 
Q 3050 -91 2638 -91 
Q 1578 -91 968 557 
Q 359 1206 359 2328 
Q 359 3453 968 4101 
Q 1578 4750 2638 4750 
Q 3056 4750 3426 4639 
Q 3797 4528 4122 4306 
z
" transform="scale(0.015625)"/>
       <path id="DejaVuSans-2b" d="M 2944 4013 
L 2944 2272 
L 4684 2272 
L 4684 1741 
L 2944 1741 
L 2944 0 
L 2419 0 
L 2419 1741 
L 678 1741 
L 678 2272 
L 2419 2272 
L 2419 4013 
L 2944 4013 
z
" transform="scale(0.015625)"/>
       <path id="DejaVuSans-47" d="M 3809 666 
L 3809 1919 
L 2778 1919 
L 2778 2438 
L 4434 2438 
L 4434 434 
Q 4069 175 3628 42 
Q 3188 -91 2688 -91 
Q 1594 -91 976 548 
Q 359 1188 359 2328 
Q 359 3472 976 4111 
Q 1594 4750 2688 4750 
Q 3144 4750 3555 4637 
Q 3966 4525 4313 4306 
L 4313 3634 
Q 3963 3931 3569 4081 
Q 3175 4231 2741 4231 
Q 1884 4231 1454 3753 
Q 1025 3275 1025 2328 
Q 1025 1384 1454 906 
Q 1884 428 2741 428 
Q 3075 428 3337 486 
Q 3600 544 3809 666 
z
" transform="scale(0.015625)"/>
       <path id="DejaVuSans-4d" d="M 628 4666 
L 1569 4666 
L 2759 1491 
L 3956 4666 
L 4897 4666 
L 4897 0 
L 4281 0 
L 4281 4097 
L 3078 897 
L 2444 897 
L 1241 4097 
L 1241 0 
L 628 0 
L 628 4666 
z
" transform="scale(0.015625)"/>
      </defs>
      <use xlink:href="#DejaVuSans-50"/>
      <use xlink:href="#DejaVuSans-45" x="60.302734"/>
      <use xlink:href="#DejaVuSans-44" x="123.486328"/>
      <use xlink:href="#DejaVuSans-49" x="200.488281"/>
      <use xlink:href="#DejaVuSans-41" x="229.980469"/>
      <use xlink:href="#DejaVuSans-20" x="298.388672"/>
      <use xlink:href="#DejaVuSans-3d" x="330.175781"/>
      <use xlink:href="#DejaVuSans-20" x="413.964844"/>
      <use xlink:href="#DejaVuSans-43" x="445.751953"/>
      <use xlink:href="#DejaVuSans-41" x="515.576172"/>
      <use xlink:href="#DejaVuSans-44" x="583.984375"/>
      <use xlink:href="#DejaVuSans-44" x="660.986328"/>
      <use xlink:href="#DejaVuSans-20" x="737.988281"/>
      <use xlink:href="#DejaVuSans-2b" x="769.775391"/>
      <use xlink:href="#DejaVuSans-20" x="853.564453"/>
      <use xlink:href="#DejaVuSans-43" x="885.351562"/>
      <use xlink:href="#DejaVuSans-41" x="955.175781"/>
      <use xlink:href="#DejaVuSans-44" x="1023.583984"/>
      <use xlink:href="#DejaVuSans-41" x="1098.835938"/>
      <use xlink:href="#DejaVuSans-20" x="1167.244141"/>
      <use xlink:href="#DejaVuSans-2b" x="1199.03125"/>
      <use xlink:href="#DejaVuSans-20" x="1282.820312"/>
      <use xlink:href="#DejaVuSans-47" x="1314.607422"/>
      <use xlink:href="#DejaVuSans-4d" x="1392.097656"/>
     </g>
    </g>
    <g id="line2d_38">
     <path d="M 1408.620313 1373.869563 
L 1458.620313 1373.869563 
L 1508.620313 1373.869563 
" style="fill: none; stroke: #ff7f0e; stroke-width: 14; stroke-linecap: square"/>
    </g>
    <g id="text_12">
     <!-- CADD + CADA -->
     <g transform="translate(1548.620313 1391.369563) scale(0.5 -0.5)">
      <use xlink:href="#DejaVuSans-43"/>
      <use xlink:href="#DejaVuSans-41" x="69.824219"/>
      <use xlink:href="#DejaVuSans-44" x="138.232422"/>
      <use xlink:href="#DejaVuSans-44" x="215.234375"/>
      <use xlink:href="#DejaVuSans-20" x="292.236328"/>
      <use xlink:href="#DejaVuSans-2b" x="324.023438"/>
      <use xlink:href="#DejaVuSans-20" x="407.8125"/>
      <use xlink:href="#DejaVuSans-43" x="439.599609"/>
      <use xlink:href="#DejaVuSans-41" x="509.423828"/>
      <use xlink:href="#DejaVuSans-44" x="577.832031"/>
      <use xlink:href="#DejaVuSans-41" x="653.083984"/>
     </g>
    </g>
   </g>
  </g>
 </g>
 <defs>
  <clipPath id="p52cf7d367e">
   <rect x="324" y="207.36" width="2008.8" height="1304.64"/>
  </clipPath>
 </defs>
</svg>
