<?xml version="1.0" encoding="utf-8" standalone="no"?>
<!DOCTYPE svg PUBLIC "-//W3C//DTD SVG 1.1//EN"
  "http://www.w3.org/Graphics/SVG/1.1/DTD/svg11.dtd">
<svg xmlns:xlink="http://www.w3.org/1999/xlink" width="2592pt" height="1728pt" viewBox="0 0 2592 1728" xmlns="http://www.w3.org/2000/svg" version="1.1">
 <metadata>
  <rdf:RDF xmlns:dc="http://purl.org/dc/elements/1.1/" xmlns:cc="http://creativecommons.org/ns#" xmlns:rdf="http://www.w3.org/1999/02/22-rdf-syntax-ns#">
   <cc:Work>
    <dc:type rdf:resource="http://purl.org/dc/dcmitype/StillImage"/>
    <dc:date>2024-03-30T13:24:36.432173</dc:date>
    <dc:format>image/svg+xml</dc:format>
    <dc:creator>
     <cc:Agent>
      <dc:title>Matplotlib v3.6.2, https://matplotlib.org/</dc:title>
     </cc:Agent>
    </dc:creator>
   </cc:Work>
  </rdf:RDF>
 </metadata>
 <defs>
  <style type="text/css">*{stroke-linejoin: round; stroke-linecap: butt}</style>
 </defs>
 <g id="figure_1">
  <g id="patch_1">
   <path d="M 0 1728 
L 2592 1728 
L 2592 0 
L 0 0 
L 0 1728 
z
" style="fill: none"/>
  </g>
  <g id="axes_1">
   <g id="patch_2">
    <path d="M 170.8 1596.6 
L 2039.975 1596.6 
L 2039.975 10.8 
L 170.8 10.8 
z
" style="fill: #ffffff"/>
   </g>
   <g id="PolyCollection_1">
    <defs>
     <path id="m7a97e2f3d4" d="M 170.8 -1068.463636 
L 170.8 -748.1 
L 452.138871 -892.263636 
L 616.711561 -940.318182 
L 733.477742 -1004.390909 
L 824.048629 -1132.536364 
L 898.050432 -1164.572727 
L 960.618064 -1164.572727 
L 1014.816613 -1164.572727 
L 1062.623121 -1196.609091 
L 1105.3875 -1276.7 
L 1144.072586 -1292.718182 
L 1179.389303 -1292.718182 
L 1211.877533 -1308.736364 
L 1241.956936 -1292.718182 
L 1269.96019 -1340.772727 
L 1296.155484 -1356.790909 
L 1320.762181 -1356.790909 
L 1343.961992 -1356.790909 
L 1365.907131 -1356.790909 
L 1386.726371 -1356.790909 
L 1406.529625 -1372.809091 
L 1425.411457 -1404.845455 
L 1443.453814 -1404.845455 
L 1460.728174 -1404.845455 
L 1477.297258 -1404.845455 
L 1493.216404 -1404.845455 
L 1508.534682 -1420.863636 
L 1523.295807 -1420.863636 
L 1537.538889 -1420.863636 
L 1551.299061 -1420.863636 
L 1564.607997 -1420.863636 
L 1577.494355 -1420.863636 
L 1589.984147 -1420.863636 
L 1602.101052 -1420.863636 
L 1613.866693 -1436.881818 
L 1625.300863 -1436.881818 
L 1636.421729 -1436.881818 
L 1647.246002 -1436.881818 
L 1657.789093 -1436.881818 
L 1668.065242 -1436.881818 
L 1678.087633 -1436.881818 
L 1687.868496 -1436.881818 
L 1697.4192 -1468.918182 
L 1706.750328 -1468.918182 
L 1715.87175 -1484.936364 
L 1724.792685 -1484.936364 
L 1733.521757 -1484.936364 
L 1742.067045 -1484.936364 
L 1750.436129 -1484.936364 
L 1758.636129 -1484.936364 
L 1766.673742 -1484.936364 
L 1774.555275 -1484.936364 
L 1782.286674 -1484.936364 
L 1789.873553 -1484.936364 
L 1797.321215 -1484.936364 
L 1804.634678 -1484.936364 
L 1811.818692 -1484.936364 
L 1818.87776 -1484.936364 
L 1825.816154 -1484.936364 
L 1832.637932 -1484.936364 
L 1839.346947 -1484.936364 
L 1845.946868 -1484.936364 
L 1852.441186 -1484.936364 
L 1858.833226 -1484.936364 
L 1865.126162 -1484.936364 
L 1871.323018 -1484.936364 
L 1877.426685 -1484.936364 
L 1883.439923 -1484.936364 
L 1889.365375 -1500.954545 
L 1895.205564 -1500.954545 
L 1900.962912 -1500.954545 
L 1906.639735 -1532.990909 
L 1912.238254 -1532.990909 
L 1917.7606 -1532.990909 
L 1923.208819 -1532.990909 
L 1928.584873 -1532.990909 
L 1933.890651 -1532.990909 
L 1939.127964 -1532.990909 
L 1944.298559 -1532.990909 
L 1949.404113 -1532.990909 
L 1954.446243 -1532.990909 
L 1959.426504 -1532.990909 
L 1964.346397 -1532.990909 
L 1969.207367 -1532.990909 
L 1974.01081 -1532.990909 
L 1978.758071 -1532.990909 
L 1983.45045 -1532.990909 
L 1988.089199 -1532.990909 
L 1992.675533 -1532.990909 
L 1997.210621 -1532.990909 
L 2001.695597 -1532.990909 
L 2006.131556 -1532.990909 
L 2010.519558 -1532.990909 
L 2014.860628 -1532.990909 
L 2019.15576 -1532.990909 
L 2023.405916 -1532.990909 
L 2027.612028 -1532.990909 
L 2031.775 -1532.990909 
L 2035.895707 -1532.990909 
L 2039.975 -1532.990909 
L 2039.975 -1645.118182 
L 2039.975 -1645.118182 
L 2035.895707 -1645.118182 
L 2031.775 -1645.118182 
L 2027.612028 -1645.118182 
L 2023.405916 -1645.118182 
L 2019.15576 -1645.118182 
L 2014.860628 -1645.118182 
L 2010.519558 -1645.118182 
L 2006.131556 -1645.118182 
L 2001.695597 -1645.118182 
L 1997.210621 -1645.118182 
L 1992.675533 -1645.118182 
L 1988.089199 -1645.118182 
L 1983.45045 -1645.118182 
L 1978.758071 -1645.118182 
L 1974.01081 -1645.118182 
L 1969.207367 -1645.118182 
L 1964.346397 -1645.118182 
L 1959.426504 -1645.118182 
L 1954.446243 -1645.118182 
L 1949.404113 -1645.118182 
L 1944.298559 -1645.118182 
L 1939.127964 -1645.118182 
L 1933.890651 -1645.118182 
L 1928.584873 -1645.118182 
L 1923.208819 -1645.118182 
L 1917.7606 -1645.118182 
L 1912.238254 -1645.118182 
L 1906.639735 -1645.118182 
L 1900.962912 -1645.118182 
L 1895.205564 -1645.118182 
L 1889.365375 -1645.118182 
L 1883.439923 -1629.1 
L 1877.426685 -1629.1 
L 1871.323018 -1629.1 
L 1865.126162 -1629.1 
L 1858.833226 -1629.1 
L 1852.441186 -1629.1 
L 1845.946868 -1629.1 
L 1839.346947 -1629.1 
L 1832.637932 -1629.1 
L 1825.816154 -1629.1 
L 1818.87776 -1629.1 
L 1811.818692 -1629.1 
L 1804.634678 -1629.1 
L 1797.321215 -1629.1 
L 1789.873553 -1629.1 
L 1782.286674 -1629.1 
L 1774.555275 -1629.1 
L 1766.673742 -1629.1 
L 1758.636129 -1629.1 
L 1750.436129 -1629.1 
L 1742.067045 -1629.1 
L 1733.521757 -1629.1 
L 1724.792685 -1629.1 
L 1715.87175 -1629.1 
L 1706.750328 -1613.081818 
L 1697.4192 -1613.081818 
L 1687.868496 -1613.081818 
L 1678.087633 -1613.081818 
L 1668.065242 -1597.063636 
L 1657.789093 -1613.081818 
L 1647.246002 -1613.081818 
L 1636.421729 -1613.081818 
L 1625.300863 -1613.081818 
L 1613.866693 -1613.081818 
L 1602.101052 -1597.063636 
L 1589.984147 -1597.063636 
L 1577.494355 -1597.063636 
L 1564.607997 -1597.063636 
L 1551.299061 -1597.063636 
L 1537.538889 -1597.063636 
L 1523.295807 -1597.063636 
L 1508.534682 -1597.063636 
L 1493.216404 -1581.045455 
L 1477.297258 -1581.045455 
L 1460.728174 -1581.045455 
L 1443.453814 -1581.045455 
L 1425.411457 -1581.045455 
L 1406.529625 -1565.427727 
L 1386.726371 -1549.009091 
L 1365.907131 -1565.027273 
L 1343.961992 -1549.009091 
L 1320.762181 -1565.027273 
L 1296.155484 -1565.027273 
L 1269.96019 -1549.009091 
L 1241.956936 -1516.972727 
L 1211.877533 -1516.972727 
L 1179.389303 -1516.972727 
L 1144.072586 -1516.972727 
L 1105.3875 -1516.972727 
L 1062.623121 -1452.9 
L 1014.816613 -1420.863636 
L 960.618064 -1420.863636 
L 898.050432 -1420.863636 
L 824.048629 -1404.845455 
L 733.477742 -1292.718182 
L 616.711561 -1244.663636 
L 452.138871 -1180.590909 
L 170.8 -1068.463636 
z
" style="stroke: #1f77b4; stroke-opacity: 0.1"/>
    </defs>
    <g clip-path="url(#pa8659a3bb8)">
     <use xlink:href="#m7a97e2f3d4" x="0" y="1728" style="fill: #1f77b4; fill-opacity: 0.1; stroke: #1f77b4; stroke-opacity: 0.1"/>
    </g>
   </g>
   <g id="PolyCollection_2">
    <defs>
     <path id="mbc4e37ac80" d="M 170.8 -635.972727 
L 170.8 -363.663636 
L 452.138871 -507.827273 
L 616.711561 -668.009091 
L 733.477742 -732.081818 
L 824.048629 -828.190909 
L 898.050432 -844.209091 
L 960.618064 -892.263636 
L 1014.816613 -940.318182 
L 1062.623121 -956.336364 
L 1105.3875 -1020.409091 
L 1144.072586 -1020.409091 
L 1179.389303 -1036.427273 
L 1211.877533 -1084.481818 
L 1241.956936 -1084.481818 
L 1269.96019 -1100.5 
L 1296.155484 -1132.536364 
L 1320.762181 -1132.536364 
L 1343.961992 -1196.609091 
L 1365.907131 -1244.663636 
L 1386.726371 -1244.663636 
L 1406.529625 -1244.663636 
L 1425.411457 -1260.681818 
L 1443.453814 -1276.7 
L 1460.728174 -1276.7 
L 1477.297258 -1276.7 
L 1493.216404 -1276.7 
L 1508.534682 -1276.7 
L 1523.295807 -1276.7 
L 1537.538889 -1276.7 
L 1551.299061 -1276.7 
L 1564.607997 -1276.7 
L 1577.494355 -1276.7 
L 1589.984147 -1276.7 
L 1602.101052 -1292.718182 
L 1613.866693 -1292.718182 
L 1625.300863 -1292.718182 
L 1636.421729 -1324.754545 
L 1647.246002 -1324.754545 
L 1657.789093 -1324.754545 
L 1668.065242 -1324.754545 
L 1678.087633 -1324.754545 
L 1687.868496 -1324.754545 
L 1697.4192 -1308.736364 
L 1706.750328 -1340.772727 
L 1715.87175 -1340.772727 
L 1724.792685 -1340.772727 
L 1733.521757 -1340.772727 
L 1742.067045 -1340.772727 
L 1750.436129 -1356.790909 
L 1758.636129 -1372.809091 
L 1766.673742 -1372.809091 
L 1774.555275 -1404.845455 
L 1782.286674 -1404.845455 
L 1789.873553 -1404.845455 
L 1797.321215 -1404.845455 
L 1804.634678 -1404.845455 
L 1811.818692 -1420.863636 
L 1818.87776 -1420.863636 
L 1825.816154 -1420.863636 
L 1832.637932 -1420.863636 
L 1839.346947 -1420.863636 
L 1845.946868 -1420.863636 
L 1852.441186 -1420.863636 
L 1858.833226 -1420.863636 
L 1865.126162 -1420.863636 
L 1871.323018 -1420.863636 
L 1877.426685 -1420.863636 
L 1883.439923 -1420.863636 
L 1889.365375 -1420.863636 
L 1895.205564 -1420.863636 
L 1900.962912 -1420.863636 
L 1906.639735 -1420.863636 
L 1912.238254 -1420.863636 
L 1917.7606 -1436.881818 
L 1923.208819 -1436.881818 
L 1928.584873 -1436.881818 
L 1933.890651 -1452.9 
L 1939.127964 -1484.936364 
L 1944.298559 -1484.936364 
L 1949.404113 -1484.936364 
L 1954.446243 -1484.936364 
L 1959.426504 -1484.936364 
L 1964.346397 -1484.936364 
L 1969.207367 -1484.936364 
L 1974.01081 -1484.936364 
L 1978.758071 -1484.936364 
L 1983.45045 -1484.936364 
L 1988.089199 -1484.936364 
L 1992.675533 -1484.936364 
L 1997.210621 -1484.936364 
L 2001.695597 -1484.936364 
L 2006.131556 -1484.936364 
L 2010.519558 -1500.954545 
L 2014.860628 -1500.954545 
L 2019.15576 -1500.954545 
L 2023.405916 -1500.954545 
L 2027.612028 -1500.954545 
L 2031.775 -1500.954545 
L 2035.895707 -1500.954545 
L 2039.975 -1500.954545 
L 2039.975 -1645.118182 
L 2039.975 -1645.118182 
L 2035.895707 -1645.118182 
L 2031.775 -1645.118182 
L 2027.612028 -1645.118182 
L 2023.405916 -1645.118182 
L 2019.15576 -1645.118182 
L 2014.860628 -1645.118182 
L 2010.519558 -1645.118182 
L 2006.131556 -1629.1 
L 2001.695597 -1629.1 
L 1997.210621 -1629.1 
L 1992.675533 -1629.1 
L 1988.089199 -1629.1 
L 1983.45045 -1629.1 
L 1978.758071 -1629.1 
L 1974.01081 -1629.1 
L 1969.207367 -1629.1 
L 1964.346397 -1629.1 
L 1959.426504 -1629.1 
L 1954.446243 -1629.1 
L 1949.404113 -1629.1 
L 1944.298559 -1629.1 
L 1939.127964 -1629.1 
L 1933.890651 -1613.081818 
L 1928.584873 -1613.081818 
L 1923.208819 -1613.081818 
L 1917.7606 -1613.081818 
L 1912.238254 -1597.063636 
L 1906.639735 -1597.063636 
L 1900.962912 -1597.063636 
L 1895.205564 -1597.063636 
L 1889.365375 -1597.063636 
L 1883.439923 -1597.063636 
L 1877.426685 -1597.063636 
L 1871.323018 -1597.063636 
L 1865.126162 -1597.063636 
L 1858.833226 -1597.063636 
L 1852.441186 -1597.063636 
L 1845.946868 -1597.063636 
L 1839.346947 -1597.063636 
L 1832.637932 -1597.063636 
L 1825.816154 -1597.063636 
L 1818.87776 -1597.063636 
L 1811.818692 -1597.063636 
L 1804.634678 -1581.045455 
L 1797.321215 -1581.045455 
L 1789.873553 -1581.045455 
L 1782.286674 -1581.045455 
L 1774.555275 -1581.045455 
L 1766.673742 -1565.027273 
L 1758.636129 -1565.027273 
L 1750.436129 -1565.027273 
L 1742.067045 -1549.009091 
L 1733.521757 -1549.009091 
L 1724.792685 -1549.009091 
L 1715.87175 -1549.009091 
L 1706.750328 -1549.009091 
L 1697.4192 -1532.990909 
L 1687.868496 -1532.990909 
L 1678.087633 -1532.990909 
L 1668.065242 -1532.990909 
L 1657.789093 -1532.990909 
L 1647.246002 -1532.990909 
L 1636.421729 -1532.990909 
L 1625.300863 -1516.972727 
L 1613.866693 -1516.972727 
L 1602.101052 -1516.972727 
L 1589.984147 -1500.954545 
L 1577.494355 -1516.972727 
L 1564.607997 -1516.972727 
L 1551.299061 -1500.954545 
L 1537.538889 -1500.954545 
L 1523.295807 -1500.954545 
L 1508.534682 -1516.972727 
L 1493.216404 -1500.954545 
L 1477.297258 -1500.954545 
L 1460.728174 -1501.355 
L 1443.453814 -1500.954545 
L 1425.411457 -1500.954545 
L 1406.529625 -1484.936364 
L 1386.726371 -1484.936364 
L 1365.907131 -1484.936364 
L 1343.961992 -1452.9 
L 1320.762181 -1404.845455 
L 1296.155484 -1404.845455 
L 1269.96019 -1372.809091 
L 1241.956936 -1356.790909 
L 1211.877533 -1356.790909 
L 1179.389303 -1324.754545 
L 1144.072586 -1308.736364 
L 1105.3875 -1308.736364 
L 1062.623121 -1244.663636 
L 1014.816613 -1228.645455 
L 960.618064 -1180.590909 
L 898.050432 -1132.536364 
L 824.048629 -1116.518182 
L 733.477742 -1036.427273 
L 616.711561 -956.336364 
L 452.138871 -796.154545 
L 170.8 -635.972727 
z
" style="stroke: #ff7f0e; stroke-opacity: 0.1"/>
    </defs>
    <g clip-path="url(#pa8659a3bb8)">
     <use xlink:href="#mbc4e37ac80" x="0" y="1728" style="fill: #ff7f0e; fill-opacity: 0.1; stroke: #ff7f0e; stroke-opacity: 0.1"/>
    </g>
   </g>
   <g id="PolyCollection_3">
    <defs>
     <path id="m5863f4bc29" d="M 170.8 -379.681818 
L 170.8 -203.481818 
L 452.138871 -235.518182 
L 616.711561 -283.572727 
L 733.477742 -363.663636 
L 824.048629 -379.681818 
L 898.050432 -443.754545 
L 960.618064 -491.809091 
L 1014.816613 -571.9 
L 1062.623121 -603.936364 
L 1105.3875 -716.063636 
L 1144.072586 -716.063636 
L 1179.389303 -748.1 
L 1211.877533 -796.154545 
L 1241.956936 -844.209091 
L 1269.96019 -892.263636 
L 1296.155484 -908.281818 
L 1320.762181 -956.336364 
L 1343.961992 -972.354545 
L 1365.907131 -972.354545 
L 1386.726371 -972.354545 
L 1406.529625 -1004.390909 
L 1425.411457 -1004.390909 
L 1443.453814 -1036.427273 
L 1460.728174 -1068.463636 
L 1477.297258 -1052.445455 
L 1493.216404 -1084.481818 
L 1508.534682 -1132.536364 
L 1523.295807 -1132.536364 
L 1537.538889 -1132.536364 
L 1551.299061 -1132.536364 
L 1564.607997 -1132.536364 
L 1577.494355 -1164.572727 
L 1589.984147 -1164.572727 
L 1602.101052 -1180.590909 
L 1613.866693 -1180.590909 
L 1625.300863 -1180.590909 
L 1636.421729 -1180.590909 
L 1647.246002 -1180.590909 
L 1657.789093 -1196.609091 
L 1668.065242 -1196.609091 
L 1678.087633 -1180.590909 
L 1687.868496 -1180.590909 
L 1697.4192 -1212.627273 
L 1706.750328 -1228.645455 
L 1715.87175 -1228.645455 
L 1724.792685 -1244.663636 
L 1733.521757 -1260.681818 
L 1742.067045 -1260.681818 
L 1750.436129 -1260.681818 
L 1758.636129 -1260.681818 
L 1766.673742 -1276.7 
L 1774.555275 -1276.7 
L 1782.286674 -1276.7 
L 1789.873553 -1276.7 
L 1797.321215 -1292.718182 
L 1804.634678 -1292.718182 
L 1811.818692 -1292.718182 
L 1818.87776 -1292.718182 
L 1825.816154 -1308.335909 
L 1832.637932 -1308.736364 
L 1839.346947 -1324.754545 
L 1845.946868 -1324.754545 
L 1852.441186 -1308.736364 
L 1858.833226 -1340.772727 
L 1865.126162 -1340.772727 
L 1871.323018 -1340.772727 
L 1877.426685 -1340.772727 
L 1883.439923 -1340.772727 
L 1889.365375 -1340.772727 
L 1895.205564 -1340.772727 
L 1900.962912 -1340.772727 
L 1906.639735 -1340.772727 
L 1912.238254 -1356.790909 
L 1917.7606 -1356.790909 
L 1923.208819 -1356.790909 
L 1928.584873 -1356.790909 
L 1933.890651 -1356.790909 
L 1939.127964 -1356.790909 
L 1944.298559 -1372.809091 
L 1949.404113 -1372.809091 
L 1954.446243 -1372.809091 
L 1959.426504 -1372.809091 
L 1964.346397 -1372.809091 
L 1969.207367 -1372.809091 
L 1974.01081 -1372.809091 
L 1978.758071 -1372.809091 
L 1983.45045 -1404.845455 
L 1988.089199 -1404.845455 
L 1992.675533 -1420.863636 
L 1997.210621 -1436.881818 
L 2001.695597 -1436.881818 
L 2006.131556 -1468.918182 
L 2010.519558 -1452.9 
L 2014.860628 -1452.9 
L 2019.15576 -1452.9 
L 2023.405916 -1468.918182 
L 2027.612028 -1452.9 
L 2031.775 -1484.936364 
L 2035.895707 -1484.936364 
L 2039.975 -1484.936364 
L 2039.975 -1629.1 
L 2039.975 -1629.1 
L 2035.895707 -1629.1 
L 2031.775 -1629.1 
L 2027.612028 -1613.081818 
L 2023.405916 -1613.081818 
L 2019.15576 -1613.081818 
L 2014.860628 -1613.081818 
L 2010.519558 -1613.081818 
L 2006.131556 -1613.081818 
L 2001.695597 -1613.081818 
L 1997.210621 -1613.081818 
L 1992.675533 -1597.063636 
L 1988.089199 -1581.045455 
L 1983.45045 -1581.045455 
L 1978.758071 -1565.027273 
L 1974.01081 -1581.045455 
L 1969.207367 -1565.027273 
L 1964.346397 -1565.027273 
L 1959.426504 -1565.027273 
L 1954.446243 -1565.027273 
L 1949.404113 -1565.027273 
L 1944.298559 -1565.027273 
L 1939.127964 -1565.027273 
L 1933.890651 -1565.027273 
L 1928.584873 -1565.027273 
L 1923.208819 -1565.027273 
L 1917.7606 -1565.027273 
L 1912.238254 -1565.027273 
L 1906.639735 -1549.009091 
L 1900.962912 -1549.009091 
L 1895.205564 -1549.009091 
L 1889.365375 -1549.009091 
L 1883.439923 -1549.009091 
L 1877.426685 -1549.009091 
L 1871.323018 -1549.009091 
L 1865.126162 -1549.009091 
L 1858.833226 -1549.009091 
L 1852.441186 -1532.990909 
L 1845.946868 -1532.990909 
L 1839.346947 -1532.990909 
L 1832.637932 -1516.972727 
L 1825.816154 -1516.972727 
L 1818.87776 -1516.972727 
L 1811.818692 -1516.972727 
L 1804.634678 -1516.972727 
L 1797.321215 -1516.972727 
L 1789.873553 -1516.972727 
L 1782.286674 -1500.954545 
L 1774.555275 -1516.972727 
L 1766.673742 -1500.954545 
L 1758.636129 -1484.936364 
L 1750.436129 -1484.936364 
L 1742.067045 -1500.954545 
L 1733.521757 -1500.954545 
L 1724.792685 -1484.936364 
L 1715.87175 -1468.918182 
L 1706.750328 -1468.918182 
L 1697.4192 -1452.9 
L 1687.868496 -1436.881818 
L 1678.087633 -1436.881818 
L 1668.065242 -1436.881818 
L 1657.789093 -1436.881818 
L 1647.246002 -1436.881818 
L 1636.421729 -1436.881818 
L 1625.300863 -1436.881818 
L 1613.866693 -1436.881818 
L 1602.101052 -1436.881818 
L 1589.984147 -1420.863636 
L 1577.494355 -1420.863636 
L 1564.607997 -1388.827273 
L 1551.299061 -1388.827273 
L 1537.538889 -1388.827273 
L 1523.295807 -1388.827273 
L 1508.534682 -1388.827273 
L 1493.216404 -1356.790909 
L 1477.297258 -1340.772727 
L 1460.728174 -1340.772727 
L 1443.453814 -1324.754545 
L 1425.411457 -1292.718182 
L 1406.529625 -1292.718182 
L 1386.726371 -1260.681818 
L 1365.907131 -1260.681818 
L 1343.961992 -1260.681818 
L 1320.762181 -1244.663636 
L 1296.155484 -1196.609091 
L 1269.96019 -1180.590909 
L 1241.956936 -1148.554545 
L 1211.877533 -1100.5 
L 1179.389303 -1052.445455 
L 1144.072586 -1036.427273 
L 1105.3875 -1004.390909 
L 1062.623121 -908.281818 
L 1014.816613 -860.227273 
L 960.618064 -780.136364 
L 898.050432 -716.063636 
L 824.048629 -635.972727 
L 733.477742 -619.954545 
L 616.711561 -507.827273 
L 452.138871 -443.754545 
L 170.8 -379.681818 
z
" style="stroke: #2ca02c; stroke-opacity: 0.1"/>
    </defs>
    <g clip-path="url(#pa8659a3bb8)">
     <use xlink:href="#m5863f4bc29" x="0" y="1728" style="fill: #2ca02c; fill-opacity: 0.1; stroke: #2ca02c; stroke-opacity: 0.1"/>
    </g>
   </g>
   <g id="PolyCollection_4">
    <defs>
     <path id="m399f86fea7" d="M 170.8 -411.718182 
L 170.8 -219.5 
L 452.138871 -267.554545 
L 616.711561 -299.590909 
L 733.477742 -347.645455 
L 824.048629 -395.7 
L 898.050432 -411.718182 
L 960.618064 -411.718182 
L 1014.816613 -411.718182 
L 1062.623121 -427.736364 
L 1105.3875 -427.736364 
L 1144.072586 -427.736364 
L 1179.389303 -427.736364 
L 1211.877533 -427.736364 
L 1241.956936 -427.736364 
L 1269.96019 -443.754545 
L 1296.155484 -443.754545 
L 1320.762181 -443.754545 
L 1343.961992 -443.754545 
L 1365.907131 -443.754545 
L 1386.726371 -459.772727 
L 1406.529625 -459.772727 
L 1425.411457 -459.772727 
L 1443.453814 -459.772727 
L 1460.728174 -459.772727 
L 1477.297258 -475.790909 
L 1493.216404 -475.790909 
L 1508.534682 -475.790909 
L 1523.295807 -475.790909 
L 1537.538889 -475.790909 
L 1551.299061 -475.790909 
L 1564.607997 -475.790909 
L 1577.494355 -475.790909 
L 1589.984147 -475.790909 
L 1602.101052 -475.790909 
L 1613.866693 -475.790909 
L 1625.300863 -475.790909 
L 1636.421729 -475.790909 
L 1647.246002 -475.790909 
L 1657.789093 -475.790909 
L 1668.065242 -475.790909 
L 1678.087633 -475.790909 
L 1687.868496 -491.809091 
L 1697.4192 -491.809091 
L 1706.750328 -491.809091 
L 1715.87175 -491.809091 
L 1724.792685 -491.809091 
L 1733.521757 -491.809091 
L 1742.067045 -491.809091 
L 1750.436129 -491.809091 
L 1758.636129 -491.809091 
L 1766.673742 -491.809091 
L 1774.555275 -507.827273 
L 1782.286674 -507.827273 
L 1789.873553 -507.827273 
L 1797.321215 -507.827273 
L 1804.634678 -507.827273 
L 1811.818692 -507.827273 
L 1818.87776 -523.845455 
L 1825.816154 -523.845455 
L 1832.637932 -523.845455 
L 1839.346947 -523.845455 
L 1845.946868 -539.863636 
L 1852.441186 -555.881818 
L 1858.833226 -555.881818 
L 1865.126162 -571.9 
L 1871.323018 -571.9 
L 1877.426685 -571.9 
L 1883.439923 -587.918182 
L 1889.365375 -587.918182 
L 1895.205564 -587.918182 
L 1900.962912 -587.918182 
L 1906.639735 -571.9 
L 1912.238254 -587.918182 
L 1917.7606 -571.9 
L 1923.208819 -603.936364 
L 1928.584873 -603.936364 
L 1933.890651 -603.936364 
L 1939.127964 -603.936364 
L 1944.298559 -603.936364 
L 1949.404113 -603.936364 
L 1954.446243 -603.936364 
L 1959.426504 -603.936364 
L 1964.346397 -603.936364 
L 1969.207367 -603.936364 
L 1974.01081 -587.918182 
L 1978.758071 -603.936364 
L 1983.45045 -603.936364 
L 1988.089199 -587.918182 
L 1992.675533 -619.954545 
L 1997.210621 -619.954545 
L 2001.695597 -603.936364 
L 2006.131556 -619.954545 
L 2010.519558 -619.954545 
L 2014.860628 -619.954545 
L 2019.15576 -635.972727 
L 2023.405916 -635.972727 
L 2027.612028 -635.972727 
L 2031.775 -619.954545 
L 2035.895707 -635.972727 
L 2039.975 -635.972727 
L 2039.975 -924.3 
L 2039.975 -924.3 
L 2035.895707 -924.3 
L 2031.775 -924.3 
L 2027.612028 -924.3 
L 2023.405916 -924.3 
L 2019.15576 -924.3 
L 2014.860628 -924.3 
L 2010.519558 -924.3 
L 2006.131556 -908.281818 
L 2001.695597 -908.281818 
L 1997.210621 -908.281818 
L 1992.675533 -908.281818 
L 1988.089199 -892.263636 
L 1983.45045 -892.263636 
L 1978.758071 -892.263636 
L 1974.01081 -892.263636 
L 1969.207367 -892.263636 
L 1964.346397 -892.263636 
L 1959.426504 -892.263636 
L 1954.446243 -892.263636 
L 1949.404113 -892.263636 
L 1944.298559 -892.263636 
L 1939.127964 -892.263636 
L 1933.890651 -892.263636 
L 1928.584873 -892.263636 
L 1923.208819 -892.263636 
L 1917.7606 -876.245455 
L 1912.238254 -876.245455 
L 1906.639735 -876.245455 
L 1900.962912 -876.245455 
L 1895.205564 -876.245455 
L 1889.365375 -876.245455 
L 1883.439923 -876.245455 
L 1877.426685 -860.227273 
L 1871.323018 -860.227273 
L 1865.126162 -860.227273 
L 1858.833226 -844.209091 
L 1852.441186 -844.209091 
L 1845.946868 -828.190909 
L 1839.346947 -812.172727 
L 1832.637932 -812.172727 
L 1825.816154 -812.172727 
L 1818.87776 -812.172727 
L 1811.818692 -796.154545 
L 1804.634678 -796.154545 
L 1797.321215 -796.154545 
L 1789.873553 -796.154545 
L 1782.286674 -796.154545 
L 1774.555275 -796.154545 
L 1766.673742 -780.136364 
L 1758.636129 -780.136364 
L 1750.436129 -780.136364 
L 1742.067045 -780.136364 
L 1733.521757 -780.136364 
L 1724.792685 -780.136364 
L 1715.87175 -780.136364 
L 1706.750328 -780.136364 
L 1697.4192 -780.136364 
L 1687.868496 -780.136364 
L 1678.087633 -764.118182 
L 1668.065242 -764.118182 
L 1657.789093 -764.118182 
L 1647.246002 -764.118182 
L 1636.421729 -764.118182 
L 1625.300863 -764.118182 
L 1613.866693 -764.118182 
L 1602.101052 -764.118182 
L 1589.984147 -764.118182 
L 1577.494355 -764.118182 
L 1564.607997 -764.118182 
L 1551.299061 -764.118182 
L 1537.538889 -764.118182 
L 1523.295807 -764.118182 
L 1508.534682 -764.118182 
L 1493.216404 -764.118182 
L 1477.297258 -764.118182 
L 1460.728174 -732.081818 
L 1443.453814 -748.1 
L 1425.411457 -748.1 
L 1406.529625 -732.482273 
L 1386.726371 -748.1 
L 1365.907131 -732.081818 
L 1343.961992 -732.081818 
L 1320.762181 -732.081818 
L 1296.155484 -716.063636 
L 1269.96019 -732.081818 
L 1241.956936 -700.045455 
L 1211.877533 -700.045455 
L 1179.389303 -700.045455 
L 1144.072586 -700.045455 
L 1105.3875 -700.045455 
L 1062.623121 -700.045455 
L 1014.816613 -684.027273 
L 960.618064 -684.027273 
L 898.050432 -668.009091 
L 824.048629 -651.990909 
L 733.477742 -603.936364 
L 616.711561 -539.863636 
L 452.138871 -491.809091 
L 170.8 -411.718182 
z
" style="stroke: #7f7f7f; stroke-opacity: 0.1"/>
    </defs>
    <g clip-path="url(#pa8659a3bb8)">
     <use xlink:href="#m399f86fea7" x="0" y="1728" style="fill: #7f7f7f; fill-opacity: 0.1; stroke: #7f7f7f; stroke-opacity: 0.1"/>
    </g>
   </g>
   <g id="matplotlib.axis_1">
    <g id="xtick_1">
     <g id="line2d_1">
      <path d="M 170.8 1596.6 
L 170.8 10.8 
" clip-path="url(#pa8659a3bb8)" style="fill: none; stroke: #b0b0b0; stroke-width: 0.8; stroke-linecap: square"/>
     </g>
     <g id="line2d_2">
      <defs>
       <path id="m85859315ae" d="M 0 0 
L 0 10 
" style="stroke: #000000; stroke-width: 2"/>
      </defs>
      <g>
       <use xlink:href="#m85859315ae" x="170.8" y="1596.6" style="stroke: #000000; stroke-width: 2"/>
      </g>
     </g>
     <g id="text_1">
      <!-- 1 -->
      <g transform="translate(156.8025 1655.033125) scale(0.44 -0.44)">
       <defs>
        <path id="DejaVuSans-31" d="M 794 531 
L 1825 531 
L 1825 4091 
L 703 3866 
L 703 4441 
L 1819 4666 
L 2450 4666 
L 2450 531 
L 3481 531 
L 3481 0 
L 794 0 
L 794 531 
z
" transform="scale(0.015625)"/>
       </defs>
       <use xlink:href="#DejaVuSans-31"/>
      </g>
     </g>
    </g>
    <g id="xtick_2">
     <g id="line2d_3">
      <path d="M 1105.3875 1596.6 
L 1105.3875 10.8 
" clip-path="url(#pa8659a3bb8)" style="fill: none; stroke: #b0b0b0; stroke-width: 0.8; stroke-linecap: square"/>
     </g>
     <g id="line2d_4">
      <g>
       <use xlink:href="#m85859315ae" x="1105.3875" y="1596.6" style="stroke: #000000; stroke-width: 2"/>
      </g>
     </g>
     <g id="text_2">
      <!-- 10 -->
      <g transform="translate(1077.3925 1655.033125) scale(0.44 -0.44)">
       <defs>
        <path id="DejaVuSans-30" d="M 2034 4250 
Q 1547 4250 1301 3770 
Q 1056 3291 1056 2328 
Q 1056 1369 1301 889 
Q 1547 409 2034 409 
Q 2525 409 2770 889 
Q 3016 1369 3016 2328 
Q 3016 3291 2770 3770 
Q 2525 4250 2034 4250 
z
M 2034 4750 
Q 2819 4750 3233 4129 
Q 3647 3509 3647 2328 
Q 3647 1150 3233 529 
Q 2819 -91 2034 -91 
Q 1250 -91 836 529 
Q 422 1150 422 2328 
Q 422 3509 836 4129 
Q 1250 4750 2034 4750 
z
" transform="scale(0.015625)"/>
       </defs>
       <use xlink:href="#DejaVuSans-31"/>
       <use xlink:href="#DejaVuSans-30" x="63.623047"/>
      </g>
     </g>
    </g>
    <g id="xtick_3">
     <g id="line2d_5">
      <path d="M 2039.975 1596.6 
L 2039.975 10.8 
" clip-path="url(#pa8659a3bb8)" style="fill: none; stroke: #b0b0b0; stroke-width: 0.8; stroke-linecap: square"/>
     </g>
     <g id="line2d_6">
      <g>
       <use xlink:href="#m85859315ae" x="2039.975" y="1596.6" style="stroke: #000000; stroke-width: 2"/>
      </g>
     </g>
     <g id="text_3">
      <!-- 100 -->
      <g transform="translate(1997.9825 1655.033125) scale(0.44 -0.44)">
       <use xlink:href="#DejaVuSans-31"/>
       <use xlink:href="#DejaVuSans-30" x="63.623047"/>
       <use xlink:href="#DejaVuSans-30" x="127.246094"/>
      </g>
     </g>
    </g>
    <g id="xtick_4">
     <g id="line2d_7">
      <defs>
       <path id="me8377b3269" d="M 0 0 
L 0 2 
" style="stroke: #000000; stroke-width: 0.6"/>
      </defs>
      <g>
       <use xlink:href="#me8377b3269" x="452.138871" y="1596.6" style="stroke: #000000; stroke-width: 0.6"/>
      </g>
     </g>
    </g>
    <g id="xtick_5">
     <g id="line2d_8">
      <g>
       <use xlink:href="#me8377b3269" x="616.711561" y="1596.6" style="stroke: #000000; stroke-width: 0.6"/>
      </g>
     </g>
    </g>
    <g id="xtick_6">
     <g id="line2d_9">
      <g>
       <use xlink:href="#me8377b3269" x="733.477742" y="1596.6" style="stroke: #000000; stroke-width: 0.6"/>
      </g>
     </g>
    </g>
    <g id="xtick_7">
     <g id="line2d_10">
      <g>
       <use xlink:href="#me8377b3269" x="824.048629" y="1596.6" style="stroke: #000000; stroke-width: 0.6"/>
      </g>
     </g>
    </g>
    <g id="xtick_8">
     <g id="line2d_11">
      <g>
       <use xlink:href="#me8377b3269" x="898.050432" y="1596.6" style="stroke: #000000; stroke-width: 0.6"/>
      </g>
     </g>
    </g>
    <g id="xtick_9">
     <g id="line2d_12">
      <g>
       <use xlink:href="#me8377b3269" x="960.618064" y="1596.6" style="stroke: #000000; stroke-width: 0.6"/>
      </g>
     </g>
    </g>
    <g id="xtick_10">
     <g id="line2d_13">
      <g>
       <use xlink:href="#me8377b3269" x="1014.816613" y="1596.6" style="stroke: #000000; stroke-width: 0.6"/>
      </g>
     </g>
    </g>
    <g id="xtick_11">
     <g id="line2d_14">
      <g>
       <use xlink:href="#me8377b3269" x="1062.623121" y="1596.6" style="stroke: #000000; stroke-width: 0.6"/>
      </g>
     </g>
    </g>
    <g id="xtick_12">
     <g id="line2d_15">
      <g>
       <use xlink:href="#me8377b3269" x="1386.726371" y="1596.6" style="stroke: #000000; stroke-width: 0.6"/>
      </g>
     </g>
    </g>
    <g id="xtick_13">
     <g id="line2d_16">
      <g>
       <use xlink:href="#me8377b3269" x="1551.299061" y="1596.6" style="stroke: #000000; stroke-width: 0.6"/>
      </g>
     </g>
    </g>
    <g id="xtick_14">
     <g id="line2d_17">
      <g>
       <use xlink:href="#me8377b3269" x="1668.065242" y="1596.6" style="stroke: #000000; stroke-width: 0.6"/>
      </g>
     </g>
    </g>
    <g id="xtick_15">
     <g id="line2d_18">
      <g>
       <use xlink:href="#me8377b3269" x="1758.636129" y="1596.6" style="stroke: #000000; stroke-width: 0.6"/>
      </g>
     </g>
    </g>
    <g id="xtick_16">
     <g id="line2d_19">
      <g>
       <use xlink:href="#me8377b3269" x="1832.637932" y="1596.6" style="stroke: #000000; stroke-width: 0.6"/>
      </g>
     </g>
    </g>
    <g id="xtick_17">
     <g id="line2d_20">
      <g>
       <use xlink:href="#me8377b3269" x="1895.205564" y="1596.6" style="stroke: #000000; stroke-width: 0.6"/>
      </g>
     </g>
    </g>
    <g id="xtick_18">
     <g id="line2d_21">
      <g>
       <use xlink:href="#me8377b3269" x="1949.404113" y="1596.6" style="stroke: #000000; stroke-width: 0.6"/>
      </g>
     </g>
    </g>
    <g id="xtick_19">
     <g id="line2d_22">
      <g>
       <use xlink:href="#me8377b3269" x="1997.210621" y="1596.6" style="stroke: #000000; stroke-width: 0.6"/>
      </g>
     </g>
    </g>
    <g id="text_4">
     <!-- Top-k -->
     <g transform="translate(1042.33125 1704.65625) scale(0.48 -0.48)">
      <defs>
       <path id="DejaVuSans-54" d="M -19 4666 
L 3928 4666 
L 3928 4134 
L 2272 4134 
L 2272 0 
L 1638 0 
L 1638 4134 
L -19 4134 
L -19 4666 
z
" transform="scale(0.015625)"/>
       <path id="DejaVuSans-6f" d="M 1959 3097 
Q 1497 3097 1228 2736 
Q 959 2375 959 1747 
Q 959 1119 1226 758 
Q 1494 397 1959 397 
Q 2419 397 2687 759 
Q 2956 1122 2956 1747 
Q 2956 2369 2687 2733 
Q 2419 3097 1959 3097 
z
M 1959 3584 
Q 2709 3584 3137 3096 
Q 3566 2609 3566 1747 
Q 3566 888 3137 398 
Q 2709 -91 1959 -91 
Q 1206 -91 779 398 
Q 353 888 353 1747 
Q 353 2609 779 3096 
Q 1206 3584 1959 3584 
z
" transform="scale(0.015625)"/>
       <path id="DejaVuSans-70" d="M 1159 525 
L 1159 -1331 
L 581 -1331 
L 581 3500 
L 1159 3500 
L 1159 2969 
Q 1341 3281 1617 3432 
Q 1894 3584 2278 3584 
Q 2916 3584 3314 3078 
Q 3713 2572 3713 1747 
Q 3713 922 3314 415 
Q 2916 -91 2278 -91 
Q 1894 -91 1617 61 
Q 1341 213 1159 525 
z
M 3116 1747 
Q 3116 2381 2855 2742 
Q 2594 3103 2138 3103 
Q 1681 3103 1420 2742 
Q 1159 2381 1159 1747 
Q 1159 1113 1420 752 
Q 1681 391 2138 391 
Q 2594 391 2855 752 
Q 3116 1113 3116 1747 
z
" transform="scale(0.015625)"/>
       <path id="DejaVuSans-2d" d="M 313 2009 
L 1997 2009 
L 1997 1497 
L 313 1497 
L 313 2009 
z
" transform="scale(0.015625)"/>
       <path id="DejaVuSans-6b" d="M 581 4863 
L 1159 4863 
L 1159 1991 
L 2875 3500 
L 3609 3500 
L 1753 1863 
L 3688 0 
L 2938 0 
L 1159 1709 
L 1159 0 
L 581 0 
L 581 4863 
z
" transform="scale(0.015625)"/>
      </defs>
      <use xlink:href="#DejaVuSans-54"/>
      <use xlink:href="#DejaVuSans-6f" x="44.083984"/>
      <use xlink:href="#DejaVuSans-70" x="105.265625"/>
      <use xlink:href="#DejaVuSans-2d" x="168.742188"/>
      <use xlink:href="#DejaVuSans-6b" x="204.826172"/>
     </g>
    </g>
   </g>
   <g id="matplotlib.axis_2">
    <g id="ytick_1">
     <g id="line2d_23">
      <path d="M 170.8 1287.449091 
L 2039.975 1287.449091 
" clip-path="url(#pa8659a3bb8)" style="fill: none; stroke: #b0b0b0; stroke-width: 0.8; stroke-linecap: square"/>
     </g>
     <g id="line2d_24">
      <defs>
       <path id="mca9f2176b0" d="M 0 0 
L -10 0 
" style="stroke: #000000; stroke-width: 2"/>
      </defs>
      <g>
       <use xlink:href="#mca9f2176b0" x="170.8" y="1287.449091" style="stroke: #000000; stroke-width: 2"/>
      </g>
     </g>
     <g id="text_5">
      <!-- 20 -->
      <g transform="translate(89.81 1304.165653) scale(0.44 -0.44)">
       <defs>
        <path id="DejaVuSans-32" d="M 1228 531 
L 3431 531 
L 3431 0 
L 469 0 
L 469 531 
Q 828 903 1448 1529 
Q 2069 2156 2228 2338 
Q 2531 2678 2651 2914 
Q 2772 3150 2772 3378 
Q 2772 3750 2511 3984 
Q 2250 4219 1831 4219 
Q 1534 4219 1204 4116 
Q 875 4013 500 3803 
L 500 4441 
Q 881 4594 1212 4672 
Q 1544 4750 1819 4750 
Q 2544 4750 2975 4387 
Q 3406 4025 3406 3419 
Q 3406 3131 3298 2873 
Q 3191 2616 2906 2266 
Q 2828 2175 2409 1742 
Q 1991 1309 1228 531 
z
" transform="scale(0.015625)"/>
       </defs>
       <use xlink:href="#DejaVuSans-32"/>
       <use xlink:href="#DejaVuSans-30" x="63.623047"/>
      </g>
     </g>
    </g>
    <g id="ytick_2">
     <g id="line2d_25">
      <path d="M 170.8 986.307273 
L 2039.975 986.307273 
" clip-path="url(#pa8659a3bb8)" style="fill: none; stroke: #b0b0b0; stroke-width: 0.8; stroke-linecap: square"/>
     </g>
     <g id="line2d_26">
      <g>
       <use xlink:href="#mca9f2176b0" x="170.8" y="986.307273" style="stroke: #000000; stroke-width: 2"/>
      </g>
     </g>
     <g id="text_6">
      <!-- 40 -->
      <g transform="translate(89.81 1003.023835) scale(0.44 -0.44)">
       <defs>
        <path id="DejaVuSans-34" d="M 2419 4116 
L 825 1625 
L 2419 1625 
L 2419 4116 
z
M 2253 4666 
L 3047 4666 
L 3047 1625 
L 3713 1625 
L 3713 1100 
L 3047 1100 
L 3047 0 
L 2419 0 
L 2419 1100 
L 313 1100 
L 313 1709 
L 2253 4666 
z
" transform="scale(0.015625)"/>
       </defs>
       <use xlink:href="#DejaVuSans-34"/>
       <use xlink:href="#DejaVuSans-30" x="63.623047"/>
      </g>
     </g>
    </g>
    <g id="ytick_3">
     <g id="line2d_27">
      <path d="M 170.8 685.165455 
L 2039.975 685.165455 
" clip-path="url(#pa8659a3bb8)" style="fill: none; stroke: #b0b0b0; stroke-width: 0.8; stroke-linecap: square"/>
     </g>
     <g id="line2d_28">
      <g>
       <use xlink:href="#mca9f2176b0" x="170.8" y="685.165455" style="stroke: #000000; stroke-width: 2"/>
      </g>
     </g>
     <g id="text_7">
      <!-- 60 -->
      <g transform="translate(89.81 701.882017) scale(0.44 -0.44)">
       <defs>
        <path id="DejaVuSans-36" d="M 2113 2584 
Q 1688 2584 1439 2293 
Q 1191 2003 1191 1497 
Q 1191 994 1439 701 
Q 1688 409 2113 409 
Q 2538 409 2786 701 
Q 3034 994 3034 1497 
Q 3034 2003 2786 2293 
Q 2538 2584 2113 2584 
z
M 3366 4563 
L 3366 3988 
Q 3128 4100 2886 4159 
Q 2644 4219 2406 4219 
Q 1781 4219 1451 3797 
Q 1122 3375 1075 2522 
Q 1259 2794 1537 2939 
Q 1816 3084 2150 3084 
Q 2853 3084 3261 2657 
Q 3669 2231 3669 1497 
Q 3669 778 3244 343 
Q 2819 -91 2113 -91 
Q 1303 -91 875 529 
Q 447 1150 447 2328 
Q 447 3434 972 4092 
Q 1497 4750 2381 4750 
Q 2619 4750 2861 4703 
Q 3103 4656 3366 4563 
z
" transform="scale(0.015625)"/>
       </defs>
       <use xlink:href="#DejaVuSans-36"/>
       <use xlink:href="#DejaVuSans-30" x="63.623047"/>
      </g>
     </g>
    </g>
    <g id="ytick_4">
     <g id="line2d_29">
      <path d="M 170.8 384.023636 
L 2039.975 384.023636 
" clip-path="url(#pa8659a3bb8)" style="fill: none; stroke: #b0b0b0; stroke-width: 0.8; stroke-linecap: square"/>
     </g>
     <g id="line2d_30">
      <g>
       <use xlink:href="#mca9f2176b0" x="170.8" y="384.023636" style="stroke: #000000; stroke-width: 2"/>
      </g>
     </g>
     <g id="text_8">
      <!-- 80 -->
      <g transform="translate(89.81 400.740199) scale(0.44 -0.44)">
       <defs>
        <path id="DejaVuSans-38" d="M 2034 2216 
Q 1584 2216 1326 1975 
Q 1069 1734 1069 1313 
Q 1069 891 1326 650 
Q 1584 409 2034 409 
Q 2484 409 2743 651 
Q 3003 894 3003 1313 
Q 3003 1734 2745 1975 
Q 2488 2216 2034 2216 
z
M 1403 2484 
Q 997 2584 770 2862 
Q 544 3141 544 3541 
Q 544 4100 942 4425 
Q 1341 4750 2034 4750 
Q 2731 4750 3128 4425 
Q 3525 4100 3525 3541 
Q 3525 3141 3298 2862 
Q 3072 2584 2669 2484 
Q 3125 2378 3379 2068 
Q 3634 1759 3634 1313 
Q 3634 634 3220 271 
Q 2806 -91 2034 -91 
Q 1263 -91 848 271 
Q 434 634 434 1313 
Q 434 1759 690 2068 
Q 947 2378 1403 2484 
z
M 1172 3481 
Q 1172 3119 1398 2916 
Q 1625 2713 2034 2713 
Q 2441 2713 2670 2916 
Q 2900 3119 2900 3481 
Q 2900 3844 2670 4047 
Q 2441 4250 2034 4250 
Q 1625 4250 1398 4047 
Q 1172 3844 1172 3481 
z
" transform="scale(0.015625)"/>
       </defs>
       <use xlink:href="#DejaVuSans-38"/>
       <use xlink:href="#DejaVuSans-30" x="63.623047"/>
      </g>
     </g>
    </g>
    <g id="ytick_5">
     <g id="line2d_31">
      <path d="M 170.8 82.881818 
L 2039.975 82.881818 
" clip-path="url(#pa8659a3bb8)" style="fill: none; stroke: #b0b0b0; stroke-width: 0.8; stroke-linecap: square"/>
     </g>
     <g id="line2d_32">
      <g>
       <use xlink:href="#mca9f2176b0" x="170.8" y="82.881818" style="stroke: #000000; stroke-width: 2"/>
      </g>
     </g>
     <g id="text_9">
      <!-- 100 -->
      <g transform="translate(61.815 99.598381) scale(0.44 -0.44)">
       <use xlink:href="#DejaVuSans-31"/>
       <use xlink:href="#DejaVuSans-30" x="63.623047"/>
       <use xlink:href="#DejaVuSans-30" x="127.246094"/>
      </g>
     </g>
    </g>
    <g id="text_10">
     <!-- Accuracy (%) -->
     <g transform="translate(47.8325 962.43375) rotate(-90) scale(0.48 -0.48)">
      <defs>
       <path id="DejaVuSans-41" d="M 2188 4044 
L 1331 1722 
L 3047 1722 
L 2188 4044 
z
M 1831 4666 
L 2547 4666 
L 4325 0 
L 3669 0 
L 3244 1197 
L 1141 1197 
L 716 0 
L 50 0 
L 1831 4666 
z
" transform="scale(0.015625)"/>
       <path id="DejaVuSans-63" d="M 3122 3366 
L 3122 2828 
Q 2878 2963 2633 3030 
Q 2388 3097 2138 3097 
Q 1578 3097 1268 2742 
Q 959 2388 959 1747 
Q 959 1106 1268 751 
Q 1578 397 2138 397 
Q 2388 397 2633 464 
Q 2878 531 3122 666 
L 3122 134 
Q 2881 22 2623 -34 
Q 2366 -91 2075 -91 
Q 1284 -91 818 406 
Q 353 903 353 1747 
Q 353 2603 823 3093 
Q 1294 3584 2113 3584 
Q 2378 3584 2631 3529 
Q 2884 3475 3122 3366 
z
" transform="scale(0.015625)"/>
       <path id="DejaVuSans-75" d="M 544 1381 
L 544 3500 
L 1119 3500 
L 1119 1403 
Q 1119 906 1312 657 
Q 1506 409 1894 409 
Q 2359 409 2629 706 
Q 2900 1003 2900 1516 
L 2900 3500 
L 3475 3500 
L 3475 0 
L 2900 0 
L 2900 538 
Q 2691 219 2414 64 
Q 2138 -91 1772 -91 
Q 1169 -91 856 284 
Q 544 659 544 1381 
z
M 1991 3584 
L 1991 3584 
z
" transform="scale(0.015625)"/>
       <path id="DejaVuSans-72" d="M 2631 2963 
Q 2534 3019 2420 3045 
Q 2306 3072 2169 3072 
Q 1681 3072 1420 2755 
Q 1159 2438 1159 1844 
L 1159 0 
L 581 0 
L 581 3500 
L 1159 3500 
L 1159 2956 
Q 1341 3275 1631 3429 
Q 1922 3584 2338 3584 
Q 2397 3584 2469 3576 
Q 2541 3569 2628 3553 
L 2631 2963 
z
" transform="scale(0.015625)"/>
       <path id="DejaVuSans-61" d="M 2194 1759 
Q 1497 1759 1228 1600 
Q 959 1441 959 1056 
Q 959 750 1161 570 
Q 1363 391 1709 391 
Q 2188 391 2477 730 
Q 2766 1069 2766 1631 
L 2766 1759 
L 2194 1759 
z
M 3341 1997 
L 3341 0 
L 2766 0 
L 2766 531 
Q 2569 213 2275 61 
Q 1981 -91 1556 -91 
Q 1019 -91 701 211 
Q 384 513 384 1019 
Q 384 1609 779 1909 
Q 1175 2209 1959 2209 
L 2766 2209 
L 2766 2266 
Q 2766 2663 2505 2880 
Q 2244 3097 1772 3097 
Q 1472 3097 1187 3025 
Q 903 2953 641 2809 
L 641 3341 
Q 956 3463 1253 3523 
Q 1550 3584 1831 3584 
Q 2591 3584 2966 3190 
Q 3341 2797 3341 1997 
z
" transform="scale(0.015625)"/>
       <path id="DejaVuSans-79" d="M 2059 -325 
Q 1816 -950 1584 -1140 
Q 1353 -1331 966 -1331 
L 506 -1331 
L 506 -850 
L 844 -850 
Q 1081 -850 1212 -737 
Q 1344 -625 1503 -206 
L 1606 56 
L 191 3500 
L 800 3500 
L 1894 763 
L 2988 3500 
L 3597 3500 
L 2059 -325 
z
" transform="scale(0.015625)"/>
       <path id="DejaVuSans-20" transform="scale(0.015625)"/>
       <path id="DejaVuSans-28" d="M 1984 4856 
Q 1566 4138 1362 3434 
Q 1159 2731 1159 2009 
Q 1159 1288 1364 580 
Q 1569 -128 1984 -844 
L 1484 -844 
Q 1016 -109 783 600 
Q 550 1309 550 2009 
Q 550 2706 781 3412 
Q 1013 4119 1484 4856 
L 1984 4856 
z
" transform="scale(0.015625)"/>
       <path id="DejaVuSans-25" d="M 4653 2053 
Q 4381 2053 4226 1822 
Q 4072 1591 4072 1178 
Q 4072 772 4226 539 
Q 4381 306 4653 306 
Q 4919 306 5073 539 
Q 5228 772 5228 1178 
Q 5228 1588 5073 1820 
Q 4919 2053 4653 2053 
z
M 4653 2450 
Q 5147 2450 5437 2106 
Q 5728 1763 5728 1178 
Q 5728 594 5436 251 
Q 5144 -91 4653 -91 
Q 4153 -91 3862 251 
Q 3572 594 3572 1178 
Q 3572 1766 3864 2108 
Q 4156 2450 4653 2450 
z
M 1428 4353 
Q 1159 4353 1004 4120 
Q 850 3888 850 3481 
Q 850 3069 1003 2837 
Q 1156 2606 1428 2606 
Q 1700 2606 1854 2837 
Q 2009 3069 2009 3481 
Q 2009 3884 1853 4118 
Q 1697 4353 1428 4353 
z
M 4250 4750 
L 4750 4750 
L 1831 -91 
L 1331 -91 
L 4250 4750 
z
M 1428 4750 
Q 1922 4750 2215 4408 
Q 2509 4066 2509 3481 
Q 2509 2891 2217 2550 
Q 1925 2209 1428 2209 
Q 931 2209 642 2551 
Q 353 2894 353 3481 
Q 353 4063 643 4406 
Q 934 4750 1428 4750 
z
" transform="scale(0.015625)"/>
       <path id="DejaVuSans-29" d="M 513 4856 
L 1013 4856 
Q 1481 4119 1714 3412 
Q 1947 2706 1947 2009 
Q 1947 1309 1714 600 
Q 1481 -109 1013 -844 
L 513 -844 
Q 928 -128 1133 580 
Q 1338 1288 1338 2009 
Q 1338 2731 1133 3434 
Q 928 4138 513 4856 
z
" transform="scale(0.015625)"/>
      </defs>
      <use xlink:href="#DejaVuSans-41"/>
      <use xlink:href="#DejaVuSans-63" x="66.658203"/>
      <use xlink:href="#DejaVuSans-63" x="121.638672"/>
      <use xlink:href="#DejaVuSans-75" x="176.619141"/>
      <use xlink:href="#DejaVuSans-72" x="239.998047"/>
      <use xlink:href="#DejaVuSans-61" x="281.111328"/>
      <use xlink:href="#DejaVuSans-63" x="342.390625"/>
      <use xlink:href="#DejaVuSans-79" x="397.371094"/>
      <use xlink:href="#DejaVuSans-20" x="456.550781"/>
      <use xlink:href="#DejaVuSans-28" x="488.337891"/>
      <use xlink:href="#DejaVuSans-25" x="527.351562"/>
      <use xlink:href="#DejaVuSans-29" x="622.371094"/>
     </g>
    </g>
   </g>
   <g id="line2d_33">
    <path d="M 170.8 819.718182 
L 452.138871 691.572727 
L 616.711561 643.518182 
L 733.477742 579.445455 
L 824.048629 467.318182 
L 898.050432 435.281818 
L 960.618064 435.281818 
L 1014.816613 435.281818 
L 1062.623121 403.245455 
L 1105.3875 339.172727 
L 1144.072586 323.154545 
L 1179.389303 323.154545 
L 1211.877533 323.154545 
L 1241.956936 323.154545 
L 1269.96019 291.118182 
L 1296.155484 275.1 
L 1320.762181 275.1 
L 1343.961992 275.1 
L 1365.907131 275.1 
L 1386.726371 275.1 
L 1406.529625 259.081818 
L 1425.411457 243.063636 
L 1443.453814 243.063636 
L 1460.728174 243.063636 
L 1477.297258 243.063636 
L 1493.216404 243.063636 
L 1508.534682 227.045455 
L 1523.295807 227.045455 
L 1537.538889 227.045455 
L 1551.299061 227.045455 
L 1564.607997 227.045455 
L 1577.494355 227.045455 
L 1589.984147 227.045455 
L 1602.101052 227.045455 
L 1613.866693 211.027273 
L 1625.300863 211.027273 
L 1636.421729 211.027273 
L 1647.246002 211.027273 
L 1657.789093 211.027273 
L 1668.065242 211.027273 
L 1678.087633 211.027273 
L 1687.868496 211.027273 
L 1697.4192 195.009091 
L 1706.750328 195.009091 
L 1715.87175 178.990909 
L 1724.792685 178.990909 
L 1733.521757 178.990909 
L 1742.067045 178.990909 
L 1750.436129 178.990909 
L 1758.636129 178.990909 
L 1766.673742 178.990909 
L 1774.555275 178.990909 
L 1782.286674 178.990909 
L 1789.873553 178.990909 
L 1797.321215 178.990909 
L 1804.634678 178.990909 
L 1811.818692 178.990909 
L 1818.87776 178.990909 
L 1825.816154 178.990909 
L 1832.637932 178.990909 
L 1839.346947 178.990909 
L 1845.946868 178.990909 
L 1852.441186 178.990909 
L 1858.833226 178.990909 
L 1865.126162 178.990909 
L 1871.323018 178.990909 
L 1877.426685 178.990909 
L 1883.439923 178.990909 
L 1889.365375 162.972727 
L 1895.205564 162.972727 
L 1900.962912 162.972727 
L 1906.639735 146.954545 
L 1912.238254 146.954545 
L 1917.7606 146.954545 
L 1923.208819 146.954545 
L 1928.584873 146.954545 
L 1933.890651 146.954545 
L 1939.127964 146.954545 
L 1944.298559 146.954545 
L 1949.404113 146.954545 
L 1954.446243 146.954545 
L 1959.426504 146.954545 
L 1964.346397 146.954545 
L 1969.207367 146.954545 
L 1974.01081 146.954545 
L 1978.758071 146.954545 
L 1983.45045 146.954545 
L 1988.089199 146.954545 
L 1992.675533 146.954545 
L 1997.210621 146.954545 
L 2001.695597 146.954545 
L 2006.131556 146.954545 
L 2010.519558 146.954545 
L 2014.860628 146.954545 
L 2019.15576 146.954545 
L 2023.405916 146.954545 
L 2027.612028 146.954545 
L 2031.775 146.954545 
L 2035.895707 146.954545 
L 2039.975 146.954545 
" clip-path="url(#pa8659a3bb8)" style="fill: none; stroke: #1f77b4; stroke-width: 7; stroke-linecap: square"/>
   </g>
   <g id="line2d_34">
    <defs>
     <path id="m125b21372f" d="M 0 9 
C 2.386828 9 4.676219 8.051703 6.363961 6.363961 
C 8.051703 4.676219 9 2.386828 9 0 
C 9 -2.386828 8.051703 -4.676219 6.363961 -6.363961 
C 4.676219 -8.051703 2.386828 -9 0 -9 
C -2.386828 -9 -4.676219 -8.051703 -6.363961 -6.363961 
C -8.051703 -4.676219 -9 -2.386828 -9 0 
C -9 2.386828 -8.051703 4.676219 -6.363961 6.363961 
C -4.676219 8.051703 -2.386828 9 0 9 
z
" style="stroke: #1f77b4"/>
    </defs>
    <g clip-path="url(#pa8659a3bb8)">
     <use xlink:href="#m125b21372f" x="1105.3875" y="339.172727" style="fill: #1f77b4; stroke: #1f77b4"/>
    </g>
   </g>
   <g id="line2d_35">
    <path d="M 170.8 1220.172727 
L 452.138871 1076.009091 
L 616.711561 915.827273 
L 733.477742 835.736364 
L 824.048629 755.645455 
L 898.050432 739.627273 
L 960.618064 691.572727 
L 1014.816613 643.518182 
L 1062.623121 627.5 
L 1105.3875 563.427273 
L 1144.072586 563.427273 
L 1179.389303 547.409091 
L 1211.877533 515.372727 
L 1241.956936 515.372727 
L 1269.96019 499.354545 
L 1296.155484 467.318182 
L 1320.762181 467.318182 
L 1343.961992 403.245455 
L 1365.907131 371.209091 
L 1386.726371 371.209091 
L 1406.529625 371.209091 
L 1425.411457 355.190909 
L 1443.453814 339.172727 
L 1460.728174 339.172727 
L 1477.297258 339.172727 
L 1493.216404 339.172727 
L 1508.534682 339.172727 
L 1523.295807 339.172727 
L 1537.538889 339.172727 
L 1551.299061 339.172727 
L 1564.607997 339.172727 
L 1577.494355 339.172727 
L 1589.984147 339.172727 
L 1602.101052 323.154545 
L 1613.866693 323.154545 
L 1625.300863 323.154545 
L 1636.421729 307.136364 
L 1647.246002 307.136364 
L 1657.789093 307.136364 
L 1668.065242 307.136364 
L 1678.087633 307.136364 
L 1687.868496 307.136364 
L 1697.4192 307.136364 
L 1706.750328 291.118182 
L 1715.87175 291.118182 
L 1724.792685 291.118182 
L 1733.521757 291.118182 
L 1742.067045 291.118182 
L 1750.436129 275.1 
L 1758.636129 259.081818 
L 1766.673742 259.081818 
L 1774.555275 243.063636 
L 1782.286674 243.063636 
L 1789.873553 243.063636 
L 1797.321215 243.063636 
L 1804.634678 243.063636 
L 1811.818692 227.045455 
L 1818.87776 227.045455 
L 1825.816154 227.045455 
L 1832.637932 227.045455 
L 1839.346947 227.045455 
L 1845.946868 227.045455 
L 1852.441186 227.045455 
L 1858.833226 227.045455 
L 1865.126162 227.045455 
L 1871.323018 227.045455 
L 1877.426685 227.045455 
L 1883.439923 227.045455 
L 1889.365375 227.045455 
L 1895.205564 227.045455 
L 1900.962912 227.045455 
L 1906.639735 227.045455 
L 1912.238254 227.045455 
L 1917.7606 211.027273 
L 1923.208819 211.027273 
L 1928.584873 211.027273 
L 1933.890651 195.009091 
L 1939.127964 178.990909 
L 1944.298559 178.990909 
L 1949.404113 178.990909 
L 1954.446243 178.990909 
L 1959.426504 178.990909 
L 1964.346397 178.990909 
L 1969.207367 178.990909 
L 1974.01081 178.990909 
L 1978.758071 178.990909 
L 1983.45045 178.990909 
L 1988.089199 178.990909 
L 1992.675533 178.990909 
L 1997.210621 178.990909 
L 2001.695597 178.990909 
L 2006.131556 178.990909 
L 2010.519558 162.972727 
L 2014.860628 162.972727 
L 2019.15576 162.972727 
L 2023.405916 162.972727 
L 2027.612028 162.972727 
L 2031.775 162.972727 
L 2035.895707 162.972727 
L 2039.975 162.972727 
" clip-path="url(#pa8659a3bb8)" style="fill: none; stroke: #ff7f0e; stroke-width: 7; stroke-linecap: square"/>
   </g>
   <g id="line2d_36">
    <defs>
     <path id="m70ab59605e" d="M 0 9 
C 2.386828 9 4.676219 8.051703 6.363961 6.363961 
C 8.051703 4.676219 9 2.386828 9 0 
C 9 -2.386828 8.051703 -4.676219 6.363961 -6.363961 
C 4.676219 -8.051703 2.386828 -9 0 -9 
C -2.386828 -9 -4.676219 -8.051703 -6.363961 -6.363961 
C -8.051703 -4.676219 -9 -2.386828 -9 0 
C -9 2.386828 -8.051703 4.676219 -6.363961 6.363961 
C -4.676219 8.051703 -2.386828 9 0 9 
z
" style="stroke: #ff7f0e"/>
    </defs>
    <g clip-path="url(#pa8659a3bb8)">
     <use xlink:href="#m70ab59605e" x="1105.3875" y="563.427273" style="fill: #ff7f0e; stroke: #ff7f0e"/>
    </g>
   </g>
   <g id="line2d_37">
    <path d="M 170.8 1428.409091 
L 452.138871 1380.354545 
L 616.711561 1332.3 
L 733.477742 1236.190909 
L 824.048629 1220.172727 
L 898.050432 1140.081818 
L 960.618064 1092.027273 
L 1014.816613 1011.936364 
L 1062.623121 963.881818 
L 1105.3875 867.772727 
L 1144.072586 851.754545 
L 1179.389303 819.718182 
L 1211.877533 787.681818 
L 1241.956936 739.627273 
L 1269.96019 691.572727 
L 1296.155484 675.554545 
L 1320.762181 627.5 
L 1343.961992 611.481818 
L 1365.907131 611.481818 
L 1386.726371 611.481818 
L 1406.529625 579.445455 
L 1425.411457 579.445455 
L 1443.453814 547.409091 
L 1460.728174 531.390909 
L 1477.297258 531.390909 
L 1493.216404 515.372727 
L 1508.534682 467.318182 
L 1523.295807 467.318182 
L 1537.538889 467.318182 
L 1551.299061 467.318182 
L 1564.607997 467.318182 
L 1577.494355 435.281818 
L 1589.984147 435.281818 
L 1602.101052 419.263636 
L 1613.866693 419.263636 
L 1625.300863 419.263636 
L 1636.421729 419.263636 
L 1647.246002 419.263636 
L 1657.789093 419.263636 
L 1668.065242 419.263636 
L 1678.087633 419.263636 
L 1687.868496 419.263636 
L 1697.4192 403.245455 
L 1706.750328 387.227273 
L 1715.87175 387.227273 
L 1724.792685 371.209091 
L 1733.521757 355.190909 
L 1742.067045 355.190909 
L 1750.436129 355.190909 
L 1758.636129 355.190909 
L 1766.673742 339.172727 
L 1774.555275 339.172727 
L 1782.286674 339.172727 
L 1789.873553 339.172727 
L 1797.321215 323.154545 
L 1804.634678 323.154545 
L 1811.818692 323.154545 
L 1818.87776 323.154545 
L 1825.816154 323.154545 
L 1832.637932 323.154545 
L 1839.346947 307.136364 
L 1845.946868 307.136364 
L 1852.441186 307.136364 
L 1858.833226 291.118182 
L 1865.126162 291.118182 
L 1871.323018 291.118182 
L 1877.426685 291.118182 
L 1883.439923 291.118182 
L 1889.365375 291.118182 
L 1895.205564 291.118182 
L 1900.962912 291.118182 
L 1906.639735 291.118182 
L 1912.238254 275.1 
L 1917.7606 275.1 
L 1923.208819 275.1 
L 1928.584873 275.1 
L 1933.890651 275.1 
L 1939.127964 275.1 
L 1944.298559 259.081818 
L 1949.404113 259.081818 
L 1954.446243 259.081818 
L 1959.426504 259.081818 
L 1964.346397 259.081818 
L 1969.207367 259.081818 
L 1974.01081 259.081818 
L 1978.758071 259.081818 
L 1983.45045 243.063636 
L 1988.089199 243.063636 
L 1992.675533 227.045455 
L 1997.210621 211.027273 
L 2001.695597 211.027273 
L 2006.131556 195.009091 
L 2010.519558 195.009091 
L 2014.860628 195.009091 
L 2019.15576 195.009091 
L 2023.405916 195.009091 
L 2027.612028 195.009091 
L 2031.775 178.990909 
L 2035.895707 178.990909 
L 2039.975 178.990909 
" clip-path="url(#pa8659a3bb8)" style="fill: none; stroke: #2ca02c; stroke-width: 7; stroke-linecap: square"/>
   </g>
   <g id="line2d_38">
    <defs>
     <path id="m229aeee678" d="M 0 9 
C 2.386828 9 4.676219 8.051703 6.363961 6.363961 
C 8.051703 4.676219 9 2.386828 9 0 
C 9 -2.386828 8.051703 -4.676219 6.363961 -6.363961 
C 4.676219 -8.051703 2.386828 -9 0 -9 
C -2.386828 -9 -4.676219 -8.051703 -6.363961 -6.363961 
C -8.051703 -4.676219 -9 -2.386828 -9 0 
C -9 2.386828 -8.051703 4.676219 -6.363961 6.363961 
C -4.676219 8.051703 -2.386828 9 0 9 
z
" style="stroke: #2ca02c"/>
    </defs>
    <g clip-path="url(#pa8659a3bb8)">
     <use xlink:href="#m229aeee678" x="1105.3875" y="867.772727" style="fill: #2ca02c; stroke: #2ca02c"/>
    </g>
   </g>
   <g id="line2d_39">
    <path d="M 170.8 1412.390909 
L 452.138871 1348.318182 
L 616.711561 1300.263636 
L 733.477742 1252.209091 
L 824.048629 1204.154545 
L 898.050432 1188.136364 
L 960.618064 1172.118182 
L 1014.816613 1172.118182 
L 1062.623121 1156.1 
L 1105.3875 1156.1 
L 1144.072586 1156.1 
L 1179.389303 1156.1 
L 1211.877533 1156.1 
L 1241.956936 1156.1 
L 1269.96019 1140.081818 
L 1296.155484 1140.081818 
L 1320.762181 1140.081818 
L 1343.961992 1140.081818 
L 1365.907131 1140.081818 
L 1386.726371 1124.063636 
L 1406.529625 1124.063636 
L 1425.411457 1124.063636 
L 1443.453814 1124.063636 
L 1460.728174 1124.063636 
L 1477.297258 1108.045455 
L 1493.216404 1108.045455 
L 1508.534682 1108.045455 
L 1523.295807 1108.045455 
L 1537.538889 1108.045455 
L 1551.299061 1108.045455 
L 1564.607997 1108.045455 
L 1577.494355 1108.045455 
L 1589.984147 1108.045455 
L 1602.101052 1108.045455 
L 1613.866693 1108.045455 
L 1625.300863 1108.045455 
L 1636.421729 1108.045455 
L 1647.246002 1108.045455 
L 1657.789093 1108.045455 
L 1668.065242 1108.045455 
L 1678.087633 1108.045455 
L 1687.868496 1092.027273 
L 1697.4192 1092.027273 
L 1706.750328 1092.027273 
L 1715.87175 1092.027273 
L 1724.792685 1092.027273 
L 1733.521757 1092.027273 
L 1742.067045 1092.027273 
L 1750.436129 1092.027273 
L 1758.636129 1092.027273 
L 1766.673742 1092.027273 
L 1774.555275 1076.009091 
L 1782.286674 1076.009091 
L 1789.873553 1076.009091 
L 1797.321215 1076.009091 
L 1804.634678 1076.009091 
L 1811.818692 1076.009091 
L 1818.87776 1059.990909 
L 1825.816154 1059.990909 
L 1832.637932 1059.990909 
L 1839.346947 1059.990909 
L 1845.946868 1043.972727 
L 1852.441186 1027.954545 
L 1858.833226 1027.954545 
L 1865.126162 1011.936364 
L 1871.323018 1011.936364 
L 1877.426685 1011.936364 
L 1883.439923 995.918182 
L 1889.365375 995.918182 
L 1895.205564 995.918182 
L 1900.962912 995.918182 
L 1906.639735 995.918182 
L 1912.238254 995.918182 
L 1917.7606 995.918182 
L 1923.208819 979.9 
L 1928.584873 979.9 
L 1933.890651 979.9 
L 1939.127964 979.9 
L 1944.298559 979.9 
L 1949.404113 979.9 
L 1954.446243 979.9 
L 1959.426504 979.9 
L 1964.346397 979.9 
L 1969.207367 979.9 
L 1974.01081 979.9 
L 1978.758071 979.9 
L 1983.45045 979.9 
L 1988.089199 979.9 
L 1992.675533 963.881818 
L 1997.210621 963.881818 
L 2001.695597 963.881818 
L 2006.131556 963.881818 
L 2010.519558 947.863636 
L 2014.860628 947.863636 
L 2019.15576 947.863636 
L 2023.405916 947.863636 
L 2027.612028 947.863636 
L 2031.775 947.863636 
L 2035.895707 947.863636 
L 2039.975 947.863636 
" clip-path="url(#pa8659a3bb8)" style="fill: none; stroke: #7f7f7f; stroke-width: 7; stroke-linecap: square"/>
   </g>
   <g id="line2d_40">
    <defs>
     <path id="mb7378c9750" d="M 0 9 
C 2.386828 9 4.676219 8.051703 6.363961 6.363961 
C 8.051703 4.676219 9 2.386828 9 0 
C 9 -2.386828 8.051703 -4.676219 6.363961 -6.363961 
C 4.676219 -8.051703 2.386828 -9 0 -9 
C -2.386828 -9 -4.676219 -8.051703 -6.363961 -6.363961 
C -8.051703 -4.676219 -9 -2.386828 -9 0 
C -9 2.386828 -8.051703 4.676219 -6.363961 6.363961 
C -4.676219 8.051703 -2.386828 9 0 9 
z
" style="stroke: #7f7f7f"/>
    </defs>
    <g clip-path="url(#pa8659a3bb8)">
     <use xlink:href="#mb7378c9750" x="1105.3875" y="1156.1" style="fill: #7f7f7f; stroke: #7f7f7f"/>
    </g>
   </g>
   <g id="patch_3">
    <path d="M 170.8 1596.6 
L 170.8 10.8 
" style="fill: none; stroke: #000000; stroke-width: 0.8; stroke-linejoin: miter; stroke-linecap: square"/>
   </g>
   <g id="patch_4">
    <path d="M 2039.975 1596.6 
L 2039.975 10.8 
" style="fill: none; stroke: #000000; stroke-width: 0.8; stroke-linejoin: miter; stroke-linecap: square"/>
   </g>
   <g id="patch_5">
    <path d="M 170.8 1596.6 
L 2039.975 1596.6 
" style="fill: none; stroke: #000000; stroke-width: 0.8; stroke-linejoin: miter; stroke-linecap: square"/>
   </g>
   <g id="patch_6">
    <path d="M 170.8 10.8 
L 2039.975 10.8 
" style="fill: none; stroke: #000000; stroke-width: 0.8; stroke-linejoin: miter; stroke-linecap: square"/>
   </g>
   <g id="legend_1">
    <g id="patch_7">
     <path d="M 2072.175 945.63875 
L 2571.893125 945.63875 
Q 2581.093125 945.63875 2581.093125 936.43875 
L 2581.093125 670.96125 
Q 2581.093125 661.76125 2571.893125 661.76125 
L 2072.175 661.76125 
Q 2062.975 661.76125 2062.975 670.96125 
L 2062.975 936.43875 
Q 2062.975 945.63875 2072.175 945.63875 
z
" style="fill: #ffffff; opacity: 0.8; stroke: #cccccc; stroke-linejoin: miter"/>
    </g>
    <g id="line2d_41">
     <path d="M 2081.375 699.014063 
L 2127.375 699.014063 
L 2173.375 699.014063 
" style="fill: none; stroke: #1f77b4; stroke-width: 14; stroke-linecap: square"/>
    </g>
    <g id="text_11">
     <!-- PEIDA -->
     <g transform="translate(2210.175 715.114063) scale(0.46 -0.46)">
      <defs>
       <path id="DejaVuSans-50" d="M 1259 4147 
L 1259 2394 
L 2053 2394 
Q 2494 2394 2734 2622 
Q 2975 2850 2975 3272 
Q 2975 3691 2734 3919 
Q 2494 4147 2053 4147 
L 1259 4147 
z
M 628 4666 
L 2053 4666 
Q 2838 4666 3239 4311 
Q 3641 3956 3641 3272 
Q 3641 2581 3239 2228 
Q 2838 1875 2053 1875 
L 1259 1875 
L 1259 0 
L 628 0 
L 628 4666 
z
" transform="scale(0.015625)"/>
       <path id="DejaVuSans-45" d="M 628 4666 
L 3578 4666 
L 3578 4134 
L 1259 4134 
L 1259 2753 
L 3481 2753 
L 3481 2222 
L 1259 2222 
L 1259 531 
L 3634 531 
L 3634 0 
L 628 0 
L 628 4666 
z
" transform="scale(0.015625)"/>
       <path id="DejaVuSans-49" d="M 628 4666 
L 1259 4666 
L 1259 0 
L 628 0 
L 628 4666 
z
" transform="scale(0.015625)"/>
       <path id="DejaVuSans-44" d="M 1259 4147 
L 1259 519 
L 2022 519 
Q 2988 519 3436 956 
Q 3884 1394 3884 2338 
Q 3884 3275 3436 3711 
Q 2988 4147 2022 4147 
L 1259 4147 
z
M 628 4666 
L 1925 4666 
Q 3281 4666 3915 4102 
Q 4550 3538 4550 2338 
Q 4550 1131 3912 565 
Q 3275 0 1925 0 
L 628 0 
L 628 4666 
z
" transform="scale(0.015625)"/>
      </defs>
      <use xlink:href="#DejaVuSans-50"/>
      <use xlink:href="#DejaVuSans-45" x="60.302734"/>
      <use xlink:href="#DejaVuSans-49" x="123.486328"/>
      <use xlink:href="#DejaVuSans-44" x="152.978516"/>
      <use xlink:href="#DejaVuSans-41" x="228.230469"/>
     </g>
    </g>
    <g id="line2d_42">
     <path d="M 2081.375 766.533438 
L 2127.375 766.533438 
L 2173.375 766.533438 
" style="fill: none; stroke: #ff7f0e; stroke-width: 14; stroke-linecap: square"/>
    </g>
    <g id="text_12">
     <!-- CADD + CADA -->
     <g transform="translate(2210.175 782.633438) scale(0.46 -0.46)">
      <defs>
       <path id="DejaVuSans-43" d="M 4122 4306 
L 4122 3641 
Q 3803 3938 3442 4084 
Q 3081 4231 2675 4231 
Q 1875 4231 1450 3742 
Q 1025 3253 1025 2328 
Q 1025 1406 1450 917 
Q 1875 428 2675 428 
Q 3081 428 3442 575 
Q 3803 722 4122 1019 
L 4122 359 
Q 3791 134 3420 21 
Q 3050 -91 2638 -91 
Q 1578 -91 968 557 
Q 359 1206 359 2328 
Q 359 3453 968 4101 
Q 1578 4750 2638 4750 
Q 3056 4750 3426 4639 
Q 3797 4528 4122 4306 
z
" transform="scale(0.015625)"/>
       <path id="DejaVuSans-2b" d="M 2944 4013 
L 2944 2272 
L 4684 2272 
L 4684 1741 
L 2944 1741 
L 2944 0 
L 2419 0 
L 2419 1741 
L 678 1741 
L 678 2272 
L 2419 2272 
L 2419 4013 
L 2944 4013 
z
" transform="scale(0.015625)"/>
      </defs>
      <use xlink:href="#DejaVuSans-43"/>
      <use xlink:href="#DejaVuSans-41" x="69.824219"/>
      <use xlink:href="#DejaVuSans-44" x="138.232422"/>
      <use xlink:href="#DejaVuSans-44" x="215.234375"/>
      <use xlink:href="#DejaVuSans-20" x="292.236328"/>
      <use xlink:href="#DejaVuSans-2b" x="324.023438"/>
      <use xlink:href="#DejaVuSans-20" x="407.8125"/>
      <use xlink:href="#DejaVuSans-43" x="439.599609"/>
      <use xlink:href="#DejaVuSans-41" x="509.423828"/>
      <use xlink:href="#DejaVuSans-44" x="577.832031"/>
      <use xlink:href="#DejaVuSans-41" x="653.083984"/>
     </g>
    </g>
    <g id="line2d_43">
     <path d="M 2081.375 834.052813 
L 2127.375 834.052813 
L 2173.375 834.052813 
" style="fill: none; stroke: #2ca02c; stroke-width: 14; stroke-linecap: square"/>
    </g>
    <g id="text_13">
     <!-- CADD -->
     <g transform="translate(2210.175 850.152813) scale(0.46 -0.46)">
      <use xlink:href="#DejaVuSans-43"/>
      <use xlink:href="#DejaVuSans-41" x="69.824219"/>
      <use xlink:href="#DejaVuSans-44" x="138.232422"/>
      <use xlink:href="#DejaVuSans-44" x="215.234375"/>
     </g>
    </g>
    <g id="line2d_44">
     <path d="M 2081.375 901.572188 
L 2127.375 901.572188 
L 2173.375 901.572188 
" style="fill: none; stroke: #7f7f7f; stroke-width: 14; stroke-linecap: square"/>
    </g>
    <g id="text_14">
     <!-- GestaltMatcher -->
     <g transform="translate(2210.175 917.672188) scale(0.46 -0.46)">
      <defs>
       <path id="DejaVuSans-47" d="M 3809 666 
L 3809 1919 
L 2778 1919 
L 2778 2438 
L 4434 2438 
L 4434 434 
Q 4069 175 3628 42 
Q 3188 -91 2688 -91 
Q 1594 -91 976 548 
Q 359 1188 359 2328 
Q 359 3472 976 4111 
Q 1594 4750 2688 4750 
Q 3144 4750 3555 4637 
Q 3966 4525 4313 4306 
L 4313 3634 
Q 3963 3931 3569 4081 
Q 3175 4231 2741 4231 
Q 1884 4231 1454 3753 
Q 1025 3275 1025 2328 
Q 1025 1384 1454 906 
Q 1884 428 2741 428 
Q 3075 428 3337 486 
Q 3600 544 3809 666 
z
" transform="scale(0.015625)"/>
       <path id="DejaVuSans-65" d="M 3597 1894 
L 3597 1613 
L 953 1613 
Q 991 1019 1311 708 
Q 1631 397 2203 397 
Q 2534 397 2845 478 
Q 3156 559 3463 722 
L 3463 178 
Q 3153 47 2828 -22 
Q 2503 -91 2169 -91 
Q 1331 -91 842 396 
Q 353 884 353 1716 
Q 353 2575 817 3079 
Q 1281 3584 2069 3584 
Q 2775 3584 3186 3129 
Q 3597 2675 3597 1894 
z
M 3022 2063 
Q 3016 2534 2758 2815 
Q 2500 3097 2075 3097 
Q 1594 3097 1305 2825 
Q 1016 2553 972 2059 
L 3022 2063 
z
" transform="scale(0.015625)"/>
       <path id="DejaVuSans-73" d="M 2834 3397 
L 2834 2853 
Q 2591 2978 2328 3040 
Q 2066 3103 1784 3103 
Q 1356 3103 1142 2972 
Q 928 2841 928 2578 
Q 928 2378 1081 2264 
Q 1234 2150 1697 2047 
L 1894 2003 
Q 2506 1872 2764 1633 
Q 3022 1394 3022 966 
Q 3022 478 2636 193 
Q 2250 -91 1575 -91 
Q 1294 -91 989 -36 
Q 684 19 347 128 
L 347 722 
Q 666 556 975 473 
Q 1284 391 1588 391 
Q 1994 391 2212 530 
Q 2431 669 2431 922 
Q 2431 1156 2273 1281 
Q 2116 1406 1581 1522 
L 1381 1569 
Q 847 1681 609 1914 
Q 372 2147 372 2553 
Q 372 3047 722 3315 
Q 1072 3584 1716 3584 
Q 2034 3584 2315 3537 
Q 2597 3491 2834 3397 
z
" transform="scale(0.015625)"/>
       <path id="DejaVuSans-74" d="M 1172 4494 
L 1172 3500 
L 2356 3500 
L 2356 3053 
L 1172 3053 
L 1172 1153 
Q 1172 725 1289 603 
Q 1406 481 1766 481 
L 2356 481 
L 2356 0 
L 1766 0 
Q 1100 0 847 248 
Q 594 497 594 1153 
L 594 3053 
L 172 3053 
L 172 3500 
L 594 3500 
L 594 4494 
L 1172 4494 
z
" transform="scale(0.015625)"/>
       <path id="DejaVuSans-6c" d="M 603 4863 
L 1178 4863 
L 1178 0 
L 603 0 
L 603 4863 
z
" transform="scale(0.015625)"/>
       <path id="DejaVuSans-4d" d="M 628 4666 
L 1569 4666 
L 2759 1491 
L 3956 4666 
L 4897 4666 
L 4897 0 
L 4281 0 
L 4281 4097 
L 3078 897 
L 2444 897 
L 1241 4097 
L 1241 0 
L 628 0 
L 628 4666 
z
" transform="scale(0.015625)"/>
       <path id="DejaVuSans-68" d="M 3513 2113 
L 3513 0 
L 2938 0 
L 2938 2094 
Q 2938 2591 2744 2837 
Q 2550 3084 2163 3084 
Q 1697 3084 1428 2787 
Q 1159 2491 1159 1978 
L 1159 0 
L 581 0 
L 581 4863 
L 1159 4863 
L 1159 2956 
Q 1366 3272 1645 3428 
Q 1925 3584 2291 3584 
Q 2894 3584 3203 3211 
Q 3513 2838 3513 2113 
z
" transform="scale(0.015625)"/>
      </defs>
      <use xlink:href="#DejaVuSans-47"/>
      <use xlink:href="#DejaVuSans-65" x="77.490234"/>
      <use xlink:href="#DejaVuSans-73" x="139.013672"/>
      <use xlink:href="#DejaVuSans-74" x="191.113281"/>
      <use xlink:href="#DejaVuSans-61" x="230.322266"/>
      <use xlink:href="#DejaVuSans-6c" x="291.601562"/>
      <use xlink:href="#DejaVuSans-74" x="319.384766"/>
      <use xlink:href="#DejaVuSans-4d" x="358.59375"/>
      <use xlink:href="#DejaVuSans-61" x="444.873047"/>
      <use xlink:href="#DejaVuSans-74" x="506.152344"/>
      <use xlink:href="#DejaVuSans-63" x="545.361328"/>
      <use xlink:href="#DejaVuSans-68" x="600.341797"/>
      <use xlink:href="#DejaVuSans-65" x="663.720703"/>
      <use xlink:href="#DejaVuSans-72" x="725.244141"/>
     </g>
    </g>
   </g>
  </g>
 </g>
 <defs>
  <clipPath id="pa8659a3bb8">
   <rect x="170.8" y="10.8" width="1869.175" height="1585.8"/>
  </clipPath>
 </defs>
</svg>
